<svg width="1920" height="2560" viewBox="0 0 1920 2560" fill="none" xmlns="http://www.w3.org/2000/svg">
<rect width="1920" height="2560" fill="#E0DDD1"/>
<path d="M180 155C182.761 155 185 157.239 185 160V2106.77C181.28 2099.3 177.938 2091.6 175 2083.7V160C175 157.239 177.239 155 180 155Z" fill="url(#paint0_linear_2919_17182)"/>
<path d="M1745 2058.14V160C1745 157.239 1742.76 155 1740 155C1737.24 155 1735 157.239 1735 160V2073.32C1738.7 2068.54 1742.05 2063.46 1745 2058.14Z" fill="url(#paint1_linear_2919_17182)"/>
<path d="M1725 2084.71V160C1725 157.239 1722.76 155 1720 155C1717.24 155 1715 157.239 1715 160V2093.68C1718.5 2090.88 1721.84 2087.88 1725 2084.71Z" fill="url(#paint2_linear_2919_17182)"/>
<path d="M1705 2100.89V160C1705 157.239 1702.76 155 1700 155C1697.24 155 1695 157.239 1695 160V2106.68C1698.43 2104.91 1701.77 2102.97 1705 2100.89Z" fill="url(#paint3_linear_2919_17182)"/>
<path d="M1665 2117.39V160C1665 157.239 1662.76 155 1660 155C1657.24 155 1655 157.239 1655 160V2119.07C1658.38 2118.65 1661.71 2118.09 1665 2117.39Z" fill="url(#paint4_linear_2919_17182)"/>
<path d="M1645 2119.9V160C1645 157.239 1642.76 155 1640 155C1637.24 155 1635 157.239 1635 160V2119.9C1636.66 2119.97 1638.33 2120 1640 2120C1641.67 2120 1643.34 2119.97 1645 2119.9Z" fill="url(#paint5_linear_2919_17182)"/>
<path d="M1625 2119.07V160C1625 157.239 1622.76 155 1620 155C1617.24 155 1615 157.239 1615 160V2117.39C1618.29 2118.09 1621.62 2118.65 1625 2119.07Z" fill="url(#paint6_linear_2919_17182)"/>
<path d="M1585 2106.68V160C1585 157.239 1582.76 155 1580 155C1577.24 155 1575 157.239 1575 160V2100.89C1578.23 2102.97 1581.57 2104.91 1585 2106.68Z" fill="url(#paint7_linear_2919_17182)"/>
<path d="M1565 2093.68V160C1565 157.239 1562.76 155 1560 155C1557.24 155 1555 157.239 1555 160V2084.71C1558.16 2087.88 1561.5 2090.88 1565 2093.68Z" fill="url(#paint8_linear_2919_17182)"/>
<path d="M1545 2073.32V160C1545 157.239 1542.76 155 1540 155C1537.24 155 1535 157.239 1535 160V2058.14C1537.95 2063.46 1541.3 2068.54 1545 2073.32Z" fill="url(#paint9_linear_2919_17182)"/>
<path d="M1505 1953.35V160C1505 157.239 1502.76 155 1500 155C1497.24 155 1495 157.239 1495 160V1941.91C1498.68 1945.39 1502.03 1949.23 1505 1953.35Z" fill="url(#paint10_linear_2919_17182)"/>
<path d="M1485 1933.85V160C1485 157.239 1482.76 155 1480 155C1477.24 155 1475 157.239 1475 160V1928.04C1478.48 1929.74 1481.82 1931.68 1485 1933.85Z" fill="url(#paint11_linear_2919_17182)"/>
<path d="M1465 1923.98V160C1465 157.239 1462.76 155 1460 155C1457.24 155 1455 157.239 1455 160V1921.4C1458.42 1922.05 1461.75 1922.92 1465 1923.98Z" fill="url(#paint12_linear_2919_17182)"/>
<path d="M1425 1921.4V160C1425 157.239 1422.76 155 1420 155C1417.24 155 1415 157.239 1415 160V1923.98C1418.25 1922.92 1421.58 1922.05 1425 1921.4Z" fill="url(#paint13_linear_2919_17182)"/>
<path d="M1405 1928.04V160C1405 157.239 1402.76 155 1400 155C1397.24 155 1395 157.239 1395 160V1933.85C1398.18 1931.68 1401.52 1929.74 1405 1928.04Z" fill="url(#paint14_linear_2919_17182)"/>
<path d="M1385 1941.91V160C1385 157.239 1382.76 155 1380 155C1377.24 155 1375 157.239 1375 160V1953.35C1377.97 1949.23 1381.32 1945.39 1385 1941.91Z" fill="url(#paint15_linear_2919_17182)"/>
<path d="M1345 2138.14V160C1345 157.239 1342.76 155 1340 155C1337.24 155 1335 157.239 1335 160V2153.32C1338.7 2148.54 1342.05 2143.46 1345 2138.14Z" fill="url(#paint16_linear_2919_17182)"/>
<path d="M1325 2164.71V160C1325 157.239 1322.76 155 1320 155C1317.24 155 1315 157.239 1315 160V2173.68C1318.5 2170.88 1321.84 2167.88 1325 2164.71Z" fill="url(#paint17_linear_2919_17182)"/>
<path d="M1305 2180.89V160C1305 157.239 1302.76 155 1300 155C1297.24 155 1295 157.239 1295 160V2186.68C1298.43 2184.91 1301.77 2182.97 1305 2180.89Z" fill="url(#paint18_linear_2919_17182)"/>
<path d="M1265 2197.39V160C1265 157.239 1262.76 155 1260 155C1257.24 155 1255 157.239 1255 160V2199.07C1258.38 2198.65 1261.71 2198.09 1265 2197.39Z" fill="url(#paint19_linear_2919_17182)"/>
<path d="M1245 2199.9V160C1245 157.239 1242.76 155 1240 155C1237.24 155 1235 157.239 1235 160V2199.9C1236.66 2199.97 1238.33 2200 1240 2200C1241.67 2200 1243.34 2199.97 1245 2199.9Z" fill="url(#paint20_linear_2919_17182)"/>
<path d="M1225 2199.07V160C1225 157.239 1222.76 155 1220 155C1217.24 155 1215 157.239 1215 160V2197.39C1218.29 2198.09 1221.62 2198.65 1225 2199.07Z" fill="url(#paint21_linear_2919_17182)"/>
<path d="M1185 2186.68V160C1185 157.239 1182.76 155 1180 155C1177.24 155 1175 157.239 1175 160V2180.89C1178.23 2182.97 1181.57 2184.91 1185 2186.68Z" fill="url(#paint22_linear_2919_17182)"/>
<path d="M1165 2173.68V160C1165 157.239 1162.76 155 1160 155C1157.24 155 1155 157.239 1155 160V2164.71C1158.16 2167.88 1161.5 2170.88 1165 2173.68Z" fill="url(#paint23_linear_2919_17182)"/>
<path d="M1145 2153.32V160C1145 157.239 1142.76 155 1140 155C1137.24 155 1135 157.239 1135 160V2138.14C1137.95 2143.46 1141.3 2148.54 1145 2153.32Z" fill="url(#paint24_linear_2919_17182)"/>
<path d="M1105 2243.7V160C1105 157.239 1102.76 155 1100 155C1097.24 155 1095 157.239 1095 160V2266.77C1098.72 2259.3 1102.06 2251.6 1105 2243.7Z" fill="url(#paint25_linear_2919_17182)"/>
<path d="M1085 2284.87V160C1085 157.239 1082.76 155 1080 155C1077.24 155 1075 157.239 1075 160V2299.94C1078.52 2295.05 1081.85 2290.02 1085 2284.87Z" fill="url(#paint26_linear_2919_17182)"/>
<path d="M1065 2312.9V160C1065 157.239 1062.76 155 1060 155C1057.24 155 1055 157.239 1055 160V2324.24C1058.45 2320.57 1061.78 2316.78 1065 2312.9Z" fill="url(#paint27_linear_2919_17182)"/>
<path d="M1025 2351.26V160C1025 157.239 1022.76 155 1020 155C1017.24 155 1015 157.239 1015 160V2358.46C1018.4 2356.14 1021.73 2353.74 1025 2351.26Z" fill="url(#paint28_linear_2919_17182)"/>
<path d="M1005 2364.92V160C1005 157.239 1002.76 155 1000 155C997.239 155 995 157.239 995 160V2370.71C998.384 2368.85 1001.72 2366.92 1005 2364.92Z" fill="url(#paint29_linear_2919_17182)"/>
<path d="M985 2375.87V160C985 157.239 982.761 155 980 155C977.239 155 975 157.239 975 160V2380.46C978.374 2379.01 981.708 2377.48 985 2375.87Z" fill="url(#paint30_linear_2919_17182)"/>
<path d="M945 2391.09V160C945 157.239 942.761 155 940 155C937.239 155 935 157.239 935 160V2393.67C938.361 2392.88 941.695 2392.02 945 2391.09Z" fill="url(#paint31_linear_2919_17182)"/>
<path d="M925 2395.79V160C925 157.239 922.761 155 920 155C917.239 155 915 157.239 915 160V2397.47C918.356 2396.98 921.69 2396.42 925 2395.79Z" fill="url(#paint32_linear_2919_17182)"/>
<path d="M905 2398.71V160C905 157.239 902.761 155 900 155C897.239 155 895 157.239 895 160V2399.54C898.352 2399.33 901.686 2399.06 905 2398.71Z" fill="url(#paint33_linear_2919_17182)"/>
<path d="M865 2399.54V160C865 157.239 862.761 155 860 155C857.239 155 855 157.239 855 160V2398.71C858.314 2399.06 861.648 2399.33 865 2399.54Z" fill="url(#paint34_linear_2919_17182)"/>
<path d="M845 2397.47V160C845 157.239 842.761 155 840 155C837.239 155 835 157.239 835 160V2395.79C838.31 2396.42 841.644 2396.98 845 2397.47Z" fill="url(#paint35_linear_2919_17182)"/>
<path d="M825 2393.67V160C825 157.239 822.761 155 820 155C817.239 155 815 157.239 815 160V2391.09C818.305 2392.02 821.639 2392.88 825 2393.67Z" fill="url(#paint36_linear_2919_17182)"/>
<path d="M785 2380.46V160C785 157.239 782.761 155 780 155C777.239 155 775 157.239 775 160V2375.87C778.292 2377.48 781.626 2379.01 785 2380.46Z" fill="url(#paint37_linear_2919_17182)"/>
<path d="M765 2370.71V160C765 157.239 762.761 155 760 155C757.239 155 755 157.239 755 160V2364.92C758.282 2366.92 761.616 2368.85 765 2370.71Z" fill="url(#paint38_linear_2919_17182)"/>
<path d="M745 2358.46V160C745 157.239 742.761 155 740 155C737.239 155 735 157.239 735 160V2351.26C738.269 2353.74 741.603 2356.14 745 2358.46Z" fill="url(#paint39_linear_2919_17182)"/>
<path d="M705 2324.24V160C705 157.239 702.761 155 700 155C697.239 155 695 157.239 695 160V2312.9C698.215 2316.78 701.55 2320.57 705 2324.24Z" fill="url(#paint40_linear_2919_17182)"/>
<path d="M685 2299.94V160C685 157.239 682.761 155 680 155C677.239 155 675 157.239 675 160V2284.87C678.147 2290.02 681.484 2295.05 685 2299.94Z" fill="url(#paint41_linear_2919_17182)"/>
<path d="M665 2266.77V160C665 157.239 662.761 155 660 155C657.239 155 655 157.239 655 160V2243.7C657.938 2251.6 661.28 2259.3 665 2266.77Z" fill="url(#paint42_linear_2919_17182)"/>
<path d="M625 2083.7V160C625 157.239 622.761 155 620 155C617.239 155 615 157.239 615 160V2106.77C618.72 2099.3 622.062 2091.6 625 2083.7Z" fill="url(#paint43_linear_2919_17182)"/>
<path d="M605 2124.87V160C605 157.239 602.761 155 600 155C597.239 155 595 157.239 595 160V2139.94C598.516 2135.05 601.853 2130.02 605 2124.87Z" fill="url(#paint44_linear_2919_17182)"/>
<path d="M585 2152.9V160C585 157.239 582.761 155 580 155C577.239 155 575 157.239 575 160V2164.24C578.45 2160.57 581.785 2156.78 585 2152.9Z" fill="url(#paint45_linear_2919_17182)"/>
<path d="M545 2191.26V160C545 157.239 542.761 155 540 155C537.239 155 535 157.239 535 160V2198.46C538.397 2196.14 541.731 2193.74 545 2191.26Z" fill="url(#paint46_linear_2919_17182)"/>
<path d="M525 2204.92V160C525 157.239 522.761 155 520 155C517.239 155 515 157.239 515 160V2210.71C518.384 2208.85 521.718 2206.92 525 2204.92Z" fill="url(#paint47_linear_2919_17182)"/>
<path d="M505 2215.87V160C505 157.239 502.761 155 500 155C497.239 155 495 157.239 495 160V2220.46C498.374 2219.01 501.708 2217.48 505 2215.87Z" fill="url(#paint48_linear_2919_17182)"/>
<path d="M465 2231.09V160C465 157.239 462.761 155 460 155C457.239 155 455 157.239 455 160V2233.67C458.361 2232.88 461.695 2232.02 465 2231.09Z" fill="url(#paint49_linear_2919_17182)"/>
<path d="M445 2235.79V160C445 157.239 442.761 155 440 155C437.239 155 435 157.239 435 160V2237.47C438.356 2236.98 441.69 2236.42 445 2235.79Z" fill="url(#paint50_linear_2919_17182)"/>
<path d="M425 2238.71V160C425 157.239 422.761 155 420 155C417.239 155 415 157.239 415 160V2239.54C418.352 2239.33 421.686 2239.06 425 2238.71Z" fill="url(#paint51_linear_2919_17182)"/>
<path d="M385 2239.54V160C385 157.239 382.761 155 380 155C377.239 155 375 157.239 375 160V2238.71C378.314 2239.06 381.648 2239.33 385 2239.54Z" fill="url(#paint52_linear_2919_17182)"/>
<path d="M365 2237.47V160C365 157.239 362.761 155 360 155C357.239 155 355 157.239 355 160V2235.79C358.31 2236.42 361.644 2236.98 365 2237.47Z" fill="url(#paint53_linear_2919_17182)"/>
<path d="M345 2233.67V160C345 157.239 342.761 155 340 155C337.239 155 335 157.239 335 160V2231.09C338.305 2232.02 341.639 2232.88 345 2233.67Z" fill="url(#paint54_linear_2919_17182)"/>
<path d="M305 2220.46V160C305 157.239 302.761 155 300 155C297.239 155 295 157.239 295 160V2215.87C298.292 2217.48 301.626 2219.01 305 2220.46Z" fill="url(#paint55_linear_2919_17182)"/>
<path d="M285 2210.71V160C285 157.239 282.761 155 280 155C277.239 155 275 157.239 275 160V2204.92C278.282 2206.92 281.616 2208.85 285 2210.71Z" fill="url(#paint56_linear_2919_17182)"/>
<path d="M265 2198.46V160C265 157.239 262.761 155 260 155C257.239 155 255 157.239 255 160V2191.26C258.269 2193.74 261.603 2196.14 265 2198.46Z" fill="url(#paint57_linear_2919_17182)"/>
<path d="M225 2164.24V160C225 157.239 222.761 155 220 155C217.239 155 215 157.239 215 160V2152.9C218.215 2156.78 221.55 2160.57 225 2164.24Z" fill="url(#paint58_linear_2919_17182)"/>
<path d="M205 2139.94V160C205 157.239 202.761 155 200 155C197.239 155 195 157.239 195 160V2124.87C198.147 2130.02 201.484 2135.05 205 2139.94Z" fill="url(#paint59_linear_2919_17182)"/>
<path fill-rule="evenodd" clip-rule="evenodd" d="M240 155C242.761 155 245 157.239 245 160V2160C245 2162.76 242.761 2165 240 2165C237.239 2165 235 2162.76 235 2160V160C235 157.239 237.239 155 240 155ZM400 155C402.761 155 405 157.239 405 160V2240C405 2242.76 402.761 2245 400 2245C397.239 2245 395 2242.76 395 2240V160C395 157.239 397.239 155 400 155ZM560 155C562.761 155 565 157.239 565 160V2000C565 2002.76 562.761 2005 560 2005C557.239 2005 555 2002.76 555 2000V160C555 157.239 557.239 155 560 155ZM640 155C642.761 155 645 157.239 645 160V2000C645 2002.76 642.761 2005 640 2005C637.239 2005 635 2002.76 635 2000V160C635 157.239 637.239 155 640 155ZM720 155C722.761 155 725 157.239 725 160V2160C725 2162.76 722.761 2165 720 2165C717.239 2165 715 2162.76 715 2160V160C715 157.239 717.239 155 720 155ZM800 155C802.761 155 805 157.239 805 160V2320C805 2322.76 802.761 2325 800 2325C797.239 2325 795 2322.76 795 2320V160C795 157.239 797.239 155 800 155ZM880 155C882.761 155 885 157.239 885 160V2320C885 2322.76 882.761 2325 880 2325C877.239 2325 875 2322.76 875 2320V160C875 157.239 877.239 155 880 155ZM960 155C962.761 155 965 157.239 965 160V2320C965 2322.76 962.761 2325 960 2325C957.239 2325 955 2322.76 955 2320V160C955 157.239 957.239 155 960 155ZM1440 155C1442.76 155 1445 157.239 1445 160V1886.84C1445 1889.6 1442.76 1891.84 1440 1891.84C1437.24 1891.84 1435 1889.6 1435 1886.84V160C1435 157.239 1437.24 155 1440 155ZM1520 155C1522.76 155 1525 157.239 1525 160V2000C1525 2002.76 1522.76 2005 1520 2005C1517.24 2005 1515 2002.76 1515 2000V160C1515 157.239 1517.24 155 1520 155Z" fill="black"/>
<path d="M1680 2200C1680 2222.09 1697.91 2240 1720 2240C1742.09 2240 1760 2222.09 1760 2200V2000H1680V2200Z" fill="#E0DDD1"/>
<path fill-rule="evenodd" clip-rule="evenodd" d="M1685 2000V2200C1685 2219.33 1700.67 2235 1720 2235C1739.33 2235 1755 2219.33 1755 2200V2000H1765V2200C1765 2224.85 1744.85 2245 1720 2245C1695.15 2245 1675 2224.85 1675 2200V2000H1685Z" fill="black"/>
<path fill-rule="evenodd" clip-rule="evenodd" d="M1700 1995C1702.76 1995 1705 1997.24 1705 2000V2200C1705 2208.28 1711.72 2215 1720 2215C1728.28 2215 1735 2208.28 1735 2200V2000C1735 1997.24 1737.24 1995 1740 1995C1742.76 1995 1745 1997.24 1745 2000V2200C1745 2213.81 1733.81 2225 1720 2225C1706.19 2225 1695 2213.81 1695 2200V2000C1695 1997.24 1697.24 1995 1700 1995ZM1720 1995C1722.76 1995 1725 1997.24 1725 2000V2200C1725 2202.76 1722.76 2205 1720 2205C1717.24 2205 1715 2202.76 1715 2200V2000C1715 1997.24 1717.24 1995 1720 1995Z" fill="#C4AC93"/>
<path d="M640 880C640 968.366 711.634 1040 800 1040C800 951.634 728.366 880 640 880Z" fill="#E0DDD1"/>
<path fill-rule="evenodd" clip-rule="evenodd" d="M705.08 992.32C726.516 1006.65 752.282 1015 780 1015C781.71 1015 783.38 1015.17 784.994 1015.5C778.642 1009.02 769.79 1005 760 1005C740.296 1005 721.657 1000.44 705.08 992.32ZM795 1040C795 1031.72 788.284 1025 780 1025C699.919 1025 635 960.081 635 880H645C645 888.284 651.716 895 660 895C740.081 895 805 959.919 805 1040H795ZM734.92 927.68C713.484 913.353 687.718 905 660 905C658.29 905 656.62 904.828 655.006 904.501C661.358 910.98 670.21 915 680 915C699.704 915 718.343 919.559 734.92 927.68ZM695.066 974.927C713.544 987.591 735.907 995 760 995C765.251 995 770.292 995.899 774.977 997.552C765.471 989.71 753.285 985 740 985C723.922 985 708.688 981.386 695.066 974.927ZM744.934 945.073C726.456 932.409 704.093 925 680 925C674.749 925 669.708 924.101 665.023 922.448C674.529 930.29 686.715 935 700 935C716.078 935 731.312 938.614 744.934 945.073ZM685.053 957.506C700.564 968.523 719.526 975 740 975C755.096 975 768.99 980.146 780.023 988.78C763.134 962.448 733.605 945 700 945C691.156 945 682.724 943.234 675.039 940.034C687.567 949.432 703.133 955 720 955C722.761 955 725 957.239 725 960C725 962.761 722.761 965 720 965C707.543 965 695.713 962.32 685.053 957.506Z" fill="#667868"/>
<path fill-rule="evenodd" clip-rule="evenodd" d="M635 875H640C731.127 875 805 948.873 805 1040V1045H800C708.873 1045 635 971.127 635 880L635 875ZM785.079 985.319C763.54 928.199 709.235 887.148 645.082 885.082C647.708 966.617 713.306 1032.24 794.83 1034.92C792.216 995.865 759.713 965 720 965C717.239 965 715 962.761 715 960C715 957.239 717.239 955 720 955C746.119 955 769.487 966.781 785.079 985.319Z" fill="black"/>
<path d="M1040 720C1040 808.366 968.366 880 880 880C880 791.634 951.634 720 1040 720Z" fill="#E0DDD1"/>
<path fill-rule="evenodd" clip-rule="evenodd" d="M974.92 832.32C953.484 846.647 927.718 855 900 855C898.29 855 896.62 855.172 895.006 855.499C901.358 849.02 910.21 845 920 845C939.704 845 958.343 840.441 974.92 832.32ZM885 880C885 871.716 891.716 865 900 865C980.081 865 1045 800.081 1045 720H1035C1035 728.284 1028.28 735 1020 735C939.919 735 875 799.919 875 880H885ZM945.08 767.68C966.516 753.353 992.282 745 1020 745C1021.71 745 1023.38 744.828 1024.99 744.501C1018.64 750.98 1009.79 755 1000 755C980.296 755 961.657 759.559 945.08 767.68ZM984.934 814.927C966.456 827.591 944.093 835 920 835C914.749 835 909.708 835.899 905.023 837.552C914.529 829.71 926.715 825 940 825C956.078 825 971.312 821.386 984.934 814.927ZM935.066 785.073C953.544 772.409 975.907 765 1000 765C1005.25 765 1010.29 764.101 1014.98 762.448C1005.47 770.29 993.285 775 980 775C963.922 775 948.688 778.614 935.066 785.073ZM994.947 797.506C979.436 808.523 960.474 815 940 815C924.904 815 911.01 820.146 899.977 828.78C916.866 802.448 946.395 785 980 785C988.844 785 997.276 783.234 1004.96 780.034C992.433 789.432 976.867 795 960 795C957.239 795 955 797.239 955 800C955 802.761 957.239 805 960 805C972.457 805 984.287 802.32 994.947 797.506Z" fill="#667868"/>
<path fill-rule="evenodd" clip-rule="evenodd" d="M1045 715H1040C948.873 715 875 788.873 875 880V885H880C971.127 885 1045 811.127 1045 720L1045 715ZM894.921 825.319C916.46 768.199 970.765 727.148 1034.92 725.082C1032.29 806.617 966.694 872.244 885.17 874.915C887.784 835.865 920.287 805 960 805C962.761 805 965 802.761 965 800C965 797.239 962.761 795 960 795C933.881 795 910.513 806.781 894.921 825.319Z" fill="black"/>
<path d="M880 2320C968.366 2320 1040 2248.37 1040 2160H1120C1120 2292.55 1012.55 2400 880 2400C747.452 2400 640 2292.55 640 2160V2000C640 2132.55 532.548 2240 400 2240C267.452 2240 160 2132.55 160 2000C160 2088.37 231.634 2160 320 2160C408.366 2160 480 2088.37 480 2000C480 1911.63 551.634 1840 640 1840C728.366 1840 800 1911.63 800 2000C800 1955.82 835.817 1920 880 1920C924.183 1920 960 1955.82 960 2000C960 2066.27 906.274 2120 840 2120C773.726 2120 720 2066.27 720 2000V2160C720 2248.37 791.634 2320 880 2320Z" fill="#E0DDD1"/>
<path d="M1240 2200C1306.27 2200 1360 2146.27 1360 2080C1360 2124.18 1324.18 2160 1280 2160C1235.82 2160 1200 2124.18 1200 2080L1120 2080C1120 2146.27 1173.73 2200 1240 2200Z" fill="#E0DDD1"/>
<path d="M1640 2120C1706.27 2120 1760 2066.27 1760 2000H1680C1680 2022.09 1662.09 2040 1640 2040C1617.91 2040 1600 2022.09 1600 2000C1600 1933.73 1546.27 1880 1480 1880C1413.73 1880 1360 1933.73 1360 2000C1360 1955.82 1395.82 1920 1440 1920C1484.18 1920 1520 1955.82 1520 2000C1520 2066.27 1573.73 2120 1640 2120Z" fill="#E0DDD1"/>
<path fill-rule="evenodd" clip-rule="evenodd" d="M575 2000C575 1964.1 604.101 1935 640 1935C675.899 1935 705 1964.1 705 2000V2160.12C705.062 2256.71 783.389 2335 880 2335C976.65 2335 1055 2256.65 1055 2160C1055 2157.24 1057.24 2155 1060 2155C1062.76 2155 1065 2157.24 1065 2160C1065 2262.17 982.173 2345 880 2345C777.868 2345 695.066 2262.24 695 2160.12V2000C695 1969.62 670.376 1945 640 1945C609.624 1945 585 1969.62 585 2000C585 2117.07 491.432 2212.29 375 2214.94C376.662 2214.98 378.329 2215 380 2215C498.741 2215 595 2118.74 595 2000C595 1975.15 615.147 1955 640 1955C664.853 1955 685 1975.15 685 2000V2160.12C685.066 2267.76 772.345 2355 880 2355C987.695 2355 1075 2267.7 1075 2160C1075 2157.24 1077.24 2155 1080 2155C1082.76 2155 1085 2157.24 1085 2160C1085 2273.22 993.218 2365 880 2365C766.824 2365 675.069 2273.29 675 2160.13V2000C675 1980.67 659.33 1965 640 1965C620.67 1965 605 1980.67 605 2000C605 2122.59 506.955 2222.29 385 2224.95C386.662 2224.98 388.329 2225 390 2225C514.264 2225 615 2124.26 615 2000C615 1986.19 626.193 1975 640 1975C653.807 1975 665 1986.19 665 2000V2160C665 2278.74 761.259 2375 880 2375C998.741 2375 1095 2278.74 1095 2160C1095 2157.24 1097.24 2155 1100 2155C1102.76 2155 1105 2157.24 1105 2160C1105 2284.26 1004.26 2385 880 2385C755.736 2385 655 2284.26 655 2160V2000C655 1991.72 648.284 1985 640 1985C631.716 1985 625 1991.72 625 2000C625 2129.79 519.787 2235 390 2235C260.213 2235 155 2129.79 155 2000H165C165 2113.22 256.782 2205 370 2205C483.218 2205 575 2113.22 575 2000Z" fill="#C4AC93"/>
<path fill-rule="evenodd" clip-rule="evenodd" d="M495 2000C495 1919.92 559.919 1855 640 1855C720.081 1855 785 1919.92 785 2000C785 2030.38 809.624 2055 840 2055C870.376 2055 895 2030.38 895 2000C895 1991.72 888.284 1985 880 1985C871.716 1985 865 1991.72 865 2000C865 2002.76 862.761 2005 860 2005C857.239 2005 855 2002.76 855 2000C855 1986.19 866.193 1975 880 1975C893.807 1975 905 1986.19 905 2000C905 2035.9 875.899 2065 840 2065C804.101 2065 775 2035.9 775 2000C775 1925.44 714.558 1865 640 1865C565.442 1865 505 1925.44 505 2000C505 2094.98 429.338 2172.28 335 2174.93C336.661 2174.98 338.328 2175 340 2175C436.65 2175 515 2096.65 515 2000C515 1930.96 570.964 1875 640 1875C709.036 1875 765 1930.96 765 2000C765 2041.42 798.579 2075 840 2075C881.421 2075 915 2041.42 915 2000C915 1980.67 899.33 1965 880 1965C860.67 1965 845 1980.67 845 2000C845 2002.76 842.761 2005 840 2005C837.239 2005 835 2002.76 835 2000C835 1975.15 855.147 1955 880 1955C904.853 1955 925 1975.15 925 2000C925 2046.94 886.944 2085 840 2085C793.056 2085 755 2046.94 755 2000C755 1936.49 703.513 1885 640 1885C576.487 1885 525 1936.49 525 2000C525 2100.5 444.861 2182.28 345 2184.93C346.661 2184.98 348.328 2185 350 2185C452.173 2185 535 2102.17 535 2000C535 1942.01 582.01 1895 640 1895C697.99 1895 745 1942.01 745 2000C745 2052.47 787.533 2095 840 2095C892.467 2095 935 2052.47 935 2000C935 1969.62 910.376 1945 880 1945C849.624 1945 825 1969.62 825 2000C825 2002.76 822.761 2005 820 2005C817.239 2005 815 2002.76 815 2000C815 1964.1 844.101 1935 880 1935C915.899 1935 945 1964.1 945 2000C945 2057.99 897.99 2105 840 2105C782.01 2105 735 2057.99 735 2000C735 1947.53 692.467 1905 640 1905C587.533 1905 545 1947.53 545 2000C545 2107.7 457.696 2195 350 2195C242.304 2195 155 2107.7 155 2000H165C165 2091.13 238.873 2165 330 2165C421.127 2165 495 2091.13 495 2000Z" fill="#C4AC93"/>
<path d="M840 2040C862.091 2040 880 2022.09 880 2000H800C800 2022.09 817.909 2040 840 2040Z" fill="#E0DDD1"/>
<path d="M815 2031.23V2000H825L825 2037.09C821.372 2035.62 818.008 2033.64 815 2031.23Z" fill="#C4AC93"/>
<path d="M845 2039.69C843.362 2039.89 841.693 2040 840 2040C838.307 2040 836.638 2039.89 835 2039.69L835 2000H845L845 2039.69Z" fill="#C4AC93"/>
<path d="M865 2031.23C861.992 2033.64 858.628 2035.62 855 2037.09V2000H865V2031.23Z" fill="#C4AC93"/>
<path fill-rule="evenodd" clip-rule="evenodd" d="M800 1995C802.761 1995 805 1997.24 805 2000C805 2019.33 820.67 2035 840 2035C859.33 2035 875 2019.33 875 2000C875 1997.24 877.239 1995 880 1995C882.761 1995 885 1997.24 885 2000C885 2024.85 864.853 2045 840 2045C815.147 2045 795 2024.85 795 2000C795 1997.24 797.239 1995 800 1995Z" fill="black"/>
<path d="M1640 1600.95C1662.09 1600.95 1680 1583.04 1680 1560.95H1600C1600 1583.04 1617.91 1600.95 1640 1600.95Z" fill="#E0DDD1"/>
<path d="M1615 1592.18V1560.95H1625L1625 1598.04C1621.37 1596.57 1618.01 1594.59 1615 1592.18Z" fill="#C4AC93"/>
<path d="M1645 1600.64C1643.36 1600.85 1641.69 1600.95 1640 1600.95C1638.31 1600.95 1636.64 1600.85 1635 1600.64L1635 1560.95H1645L1645 1600.64Z" fill="#C4AC93"/>
<path d="M1665 1592.18C1661.99 1594.59 1658.63 1596.57 1655 1598.04V1560.95H1665V1592.18Z" fill="#C4AC93"/>
<path fill-rule="evenodd" clip-rule="evenodd" d="M1600 1555.95C1602.76 1555.95 1605 1558.19 1605 1560.95C1605 1580.28 1620.67 1595.95 1640 1595.95C1659.33 1595.95 1675 1580.28 1675 1560.95C1675 1558.19 1677.24 1555.95 1680 1555.95C1682.76 1555.95 1685 1558.19 1685 1560.95C1685 1585.8 1664.85 1605.95 1640 1605.95C1615.15 1605.95 1595 1585.8 1595 1560.95C1595 1558.19 1597.24 1555.95 1600 1555.95Z" fill="black"/>
<path d="M1600 1760C1555.82 1760 1520 1724.18 1520 1680V1600H1440C1440 1688.37 1511.63 1760 1600 1760Z" fill="#E0DDD1"/>
<path fill-rule="evenodd" clip-rule="evenodd" d="M1495 1600V1660C1495 1676.08 1498.61 1691.31 1505.07 1704.93C1492.41 1686.46 1485 1664.09 1485 1640V1600H1475V1640C1475 1659.7 1479.56 1678.34 1487.68 1694.92C1473.35 1673.48 1465 1647.72 1465 1620V1600H1455V1620C1455 1700.08 1519.92 1765 1600 1765V1755C1547.53 1755 1505 1712.47 1505 1660V1600H1495Z" fill="#C4AC93"/>
<path fill-rule="evenodd" clip-rule="evenodd" d="M1600 1765C1508.87 1765 1435 1691.13 1435 1600H1445C1445 1666.36 1486.7 1722.97 1545.32 1745.08C1526.78 1729.49 1515 1706.12 1515 1680V1600H1525V1680C1525 1721.42 1558.58 1755 1600 1755C1646.94 1755 1685 1793.06 1685 1840H1675C1675 1798.58 1641.42 1765 1600 1765Z" fill="black"/>
<path d="M320 1600C364.183 1600 400 1564.18 400 1520V1440H480C480 1528.37 408.366 1600 320 1600Z" fill="#E0DDD1"/>
<path fill-rule="evenodd" clip-rule="evenodd" d="M425 1440V1500C425 1516.08 421.386 1531.31 414.927 1544.93C427.591 1526.46 435 1504.09 435 1480V1440H445V1480C445 1499.7 440.441 1518.34 432.32 1534.92C446.647 1513.48 455 1487.72 455 1460V1440H465V1460C465 1540.08 400.081 1605 320 1605V1595C372.467 1595 415 1552.47 415 1500V1440H425Z" fill="#C4AC93"/>
<path fill-rule="evenodd" clip-rule="evenodd" d="M374.681 1585.08C433.303 1562.97 475 1506.36 475 1440H485C485 1531.13 411.127 1605 320 1605C234.396 1605 165 1674.4 165 1760H155C155 1668.87 228.873 1595 320 1595C361.421 1595 395 1561.42 395 1520V1440H405V1520C405 1546.12 393.219 1569.49 374.681 1585.08Z" fill="black"/>
<path fill-rule="evenodd" clip-rule="evenodd" d="M1140 2075C1142.76 2075 1145 2077.24 1145 2080C1145 2137.99 1192.01 2185 1250 2185C1251.68 2185 1253.34 2184.96 1255 2184.88C1199.33 2182.27 1155 2136.31 1155 2080C1155 2077.24 1157.24 2075 1160 2075C1162.76 2075 1165 2077.24 1165 2080C1165 2132.47 1207.53 2175 1260 2175C1261.68 2175 1263.34 2174.96 1265 2174.87C1214.86 2172.27 1175 2130.79 1175 2080C1175 2077.24 1177.24 2075 1180 2075C1182.76 2075 1185 2077.24 1185 2080C1185 2126.94 1223.06 2165 1270 2165C1316.94 2165 1355 2126.94 1355 2080H1365C1365 2143.51 1313.51 2195 1250 2195C1186.49 2195 1135 2143.51 1135 2080C1135 2077.24 1137.24 2075 1140 2075Z" fill="#C4AC93"/>
<path fill-rule="evenodd" clip-rule="evenodd" d="M1355 2000C1355 1936.49 1406.49 1885 1470 1885C1533.51 1885 1585 1936.49 1585 2000C1585 2030.38 1609.62 2055 1640 2055C1670.38 2055 1695 2030.38 1695 2000C1695 1997.24 1697.24 1995 1700 1995C1702.76 1995 1705 1997.24 1705 2000C1705 2035.9 1675.9 2065 1640 2065C1604.1 2065 1575 2035.9 1575 2000C1575 1942.01 1527.99 1895 1470 1895C1468.32 1895 1466.66 1895.04 1465 1895.12C1520.67 1897.73 1565 1943.69 1565 2000C1565 2041.42 1598.58 2075 1640 2075C1681.42 2075 1715 2041.42 1715 2000C1715 1997.24 1717.24 1995 1720 1995C1722.76 1995 1725 1997.24 1725 2000C1725 2046.94 1686.94 2085 1640 2085C1593.06 2085 1555 2046.94 1555 2000C1555 1947.53 1512.47 1905 1460 1905C1458.32 1905 1456.66 1905.04 1455 1905.13C1505.14 1907.73 1545 1949.21 1545 2000C1545 2052.47 1587.53 2095 1640 2095C1692.47 2095 1735 2052.47 1735 2000C1735 1997.24 1737.24 1995 1740 1995C1742.76 1995 1745 1997.24 1745 2000C1745 2057.99 1697.99 2105 1640 2105C1582.01 2105 1535 2057.99 1535 2000C1535 1953.06 1496.94 1915 1450 1915C1403.06 1915 1365 1953.06 1365 2000H1355Z" fill="#C4AC93"/>
<path fill-rule="evenodd" clip-rule="evenodd" d="M160 155C162.761 155 165 157.239 165 160V2000C165 2083.93 231.71 2152.28 315 2154.92V160C315 157.239 317.239 155 320 155C322.761 155 325 157.239 325 160V2154.92C408.29 2152.28 475 2083.93 475 2000V160C475 157.239 477.239 155 480 155C482.761 155 485 157.239 485 160V1943.3C508.124 1880.1 568.795 1835 640 1835C719.794 1835 786.359 1891.64 801.681 1966.91C814.586 1936.4 844.793 1915 880 1915C926.944 1915 965 1953.06 965 2000C965 2069.04 909.036 2125 840 2125C788.384 2125 744.074 2093.71 725 2049.07V2160C725 2245.6 794.396 2315 880 2315C965.604 2315 1035 2245.6 1035 2160V160C1035 157.239 1037.24 155 1040 155C1042.76 155 1045 157.239 1045 160V2160C1045 2251.13 971.127 2325 880 2325C788.873 2325 715 2251.13 715 2160V2000C715 1997.24 717.239 1995 720 1995C722.761 1995 725 1997.24 725 2000C725 2063.51 776.487 2115 840 2115C903.513 2115 955 2063.51 955 2000C955 1958.58 921.421 1925 880 1925C838.579 1925 805 1958.58 805 2000C805 2002.76 802.761 2005 800 2005C797.239 2005 795 2002.76 795 2000C795 1914.4 725.604 1845 640 1845C554.396 1845 485 1914.4 485 2000C485 2091.13 411.127 2165 320 2165C264.105 2165 214.702 2137.21 184.855 2094.69C221.275 2177.32 303.901 2235 400 2235C529.787 2235 635 2129.79 635 2000C635 1997.24 637.239 1995 640 1995C642.761 1995 645 1997.24 645 2000V2160C645 2289.79 750.213 2395 880 2395C1009.79 2395 1115 2289.79 1115 2160V160C1115 157.239 1117.24 155 1120 155C1122.76 155 1125 157.239 1125 160V2080C1125 2143.51 1176.49 2195 1240 2195C1279.48 2195 1314.32 2175.1 1335.03 2144.79C1320.2 2157.39 1300.99 2165 1280 2165C1233.06 2165 1195 2126.94 1195 2080V160C1195 157.239 1197.24 155 1200 155C1202.76 155 1205 157.239 1205 160V2080C1205 2119.74 1235.91 2152.26 1275 2154.84V160C1275 157.239 1277.24 155 1280 155C1282.76 155 1285 157.239 1285 160V2154.84C1324.09 2152.26 1355 2119.74 1355 2080V160C1355 157.239 1357.24 155 1360 155C1362.76 155 1365 157.239 1365 160V1950.93C1384.07 1906.29 1428.38 1875 1480 1875C1531.62 1875 1575.93 1906.29 1595 1950.93V160C1595 157.239 1597.24 155 1600 155C1602.76 155 1605 157.239 1605 160V2000C1605 2019.33 1620.67 2035 1640 2035C1659.33 2035 1675 2019.33 1675 2000V160C1675 157.239 1677.24 155 1680 155C1682.76 155 1685 157.239 1685 160V2000C1685 2024.85 1664.85 2045 1640 2045C1615.15 2045 1595 2024.85 1595 2000C1595 1936.49 1543.51 1885 1480 1885C1440.52 1885 1405.68 1904.9 1384.97 1935.21C1399.8 1922.61 1419.01 1915 1440 1915C1486.94 1915 1525 1953.06 1525 2000C1525 2063.51 1576.49 2115 1640 2115C1703.51 2115 1755 2063.51 1755 2000V160C1755 157.239 1757.24 155 1760 155C1762.76 155 1765 157.239 1765 160V2000C1765 2069.04 1709.04 2125 1640 2125C1570.96 2125 1515 2069.04 1515 2000C1515 1958.58 1481.42 1925 1440 1925C1398.58 1925 1365 1958.58 1365 2000V2080C1365 2149.04 1309.04 2205 1240 2205C1188.38 2205 1144.07 2173.71 1125 2129.07V2160C1125 2295.31 1015.31 2405 880 2405C744.69 2405 635 2295.31 635 2160V2069.51C605.038 2170.96 511.165 2245 400 2245C264.69 2245 155 2135.31 155 2000V160C155 157.239 157.239 155 160 155Z" fill="black"/>
<path d="M960 1680C1092.55 1680 1200 1787.45 1200 1920L1120 1920C1120 1787.45 1012.55 1680 880 1680L960 1680Z" fill="#E0DDD1"/>
<path d="M720 1520C720 1431.63 791.634 1360 880 1360C924.183 1360 960 1324.18 960 1280C960 1235.82 924.183 1200 880 1200C835.817 1200 800 1164.18 800 1120L880 1120C880 1164.18 915.817 1200 960 1200L1040 1200C1084.18 1200 1120 1235.82 1120 1280C1120 1368.37 1048.37 1440 960 1440L800 1440C755.817 1440 720 1475.82 720 1520Z" fill="#E0DDD1"/>
<path fill-rule="evenodd" clip-rule="evenodd" d="M1049.85 1712.2C1124.29 1751.63 1175 1829.89 1175 1920C1175 1922.76 1177.24 1925 1180 1925C1182.76 1925 1185 1922.76 1185 1920C1185 1784.69 1075.31 1675 940 1675C939.124 1675 938.3 1675.23 937.584 1675.62C931.776 1675.21 925.913 1675 920 1675C919.124 1675 918.3 1675.23 917.584 1675.62C911.776 1675.21 905.913 1675 900 1675C897.239 1675 895 1677.24 895 1680C895 1682.76 897.239 1685 900 1685C1029.79 1685 1135 1790.21 1135 1920C1135 1922.76 1137.24 1925 1140 1925C1142.76 1925 1145 1922.76 1145 1920C1145 1832.38 1099.01 1755.51 1029.85 1712.2C1104.29 1751.63 1155 1829.89 1155 1920C1155 1922.76 1157.24 1925 1160 1925C1162.76 1925 1165 1922.76 1165 1920C1165 1832.38 1119.01 1755.51 1049.85 1712.2Z" fill="#C4AC93"/>
<path fill-rule="evenodd" clip-rule="evenodd" d="M975 1200L1040 1200C1043.62 1200 1047.19 1200.24 1050.68 1200.71C1082.46 1213.01 1105 1243.88 1105 1280C1105 1360.08 1040.08 1425 960 1425H880C856.158 1425 833.573 1430.38 813.395 1440H800C797.304 1440 794.638 1440.13 792.01 1440.39C817.477 1424.31 847.652 1415 880 1415H920C994.558 1415 1055 1354.56 1055 1280C1055 1241.77 1026.4 1210.23 989.43 1205.59C984.881 1203.79 980.126 1202.39 975.212 1201.44C975.074 1200.99 975 1200.5 975 1200ZM1095 1280C1095 1249.23 1076.47 1222.78 1049.95 1211.22C1071.19 1226.67 1085 1251.72 1085 1280C1085 1330.55 1059.13 1375.06 1019.91 1401.01C1064.41 1378.94 1095 1333.04 1095 1280ZM1075 1280C1075 1249.23 1056.47 1222.78 1029.95 1211.22C1051.19 1226.67 1065 1251.72 1065 1280C1065 1330.55 1039.13 1375.06 999.913 1401.01C1044.41 1378.94 1075 1333.04 1075 1280Z" fill="#C4AC93"/>
<path d="M1039.85 1275C1039.9 1275 1039.95 1275 1040 1275C1042.76 1275 1045 1277.24 1045 1280C1045 1349.04 989.036 1405 920 1405H880C841.124 1405 805.591 1419.31 778.382 1442.96C768.621 1445.69 759.613 1450.23 751.743 1456.19C781.994 1418.86 828.21 1395 880 1395H920C967.115 1395 1007.61 1366.67 1025.38 1326.11C1034.59 1313.08 1040 1297.17 1040 1280C1040 1278.32 1039.95 1276.66 1039.85 1275Z" fill="#C4AC93"/>
<path d="M997.783 1350.53C978.574 1371.7 950.839 1385 920 1385H880C823.768 1385 774.531 1414.94 747.362 1459.76C730.592 1474.42 720 1495.97 720 1520C720 1509.48 721.015 1499.2 722.952 1489.25C744.36 1422.95 806.58 1375 880 1375H920C939.544 1375 957.71 1369.1 972.812 1358.98C981.712 1357.55 990.122 1354.65 997.783 1350.53Z" fill="#C4AC93"/>
<path fill-rule="evenodd" clip-rule="evenodd" d="M820 1115C822.762 1115 825 1117.24 825 1120C825 1150.77 843.533 1177.22 870.046 1188.78C848.807 1173.33 835 1148.28 835 1120C835 1117.24 837.239 1115 840 1115C842.762 1115 845 1117.24 845 1120C845 1150.77 863.533 1177.22 890.046 1188.78C868.807 1173.33 855 1148.28 855 1120C855 1117.24 857.239 1115 860 1115C862.762 1115 865 1117.24 865 1120C865 1161.42 898.579 1195 940 1195C986.945 1195 1025 1233.06 1025 1280C1025 1326.94 986.945 1365 940 1365C938.565 1365 937.272 1364.4 936.36 1363.43C931.066 1364.46 925.596 1365 920 1365C918.565 1365 917.272 1364.4 916.36 1363.43C911.066 1364.46 905.596 1365 900 1365C897.239 1365 895 1362.76 895 1360C895 1357.24 897.239 1355 900 1355C941.422 1355 975 1321.42 975 1280C975 1238.58 941.422 1205 900 1205C853.056 1205 815 1166.94 815 1120C815 1117.24 817.239 1115 820 1115ZM969.955 1348.78C996.468 1337.22 1015 1310.77 1015 1280C1015 1249.23 996.468 1222.78 969.955 1211.22C991.194 1226.67 1005 1251.72 1005 1280C1005 1308.28 991.194 1333.33 969.955 1348.78ZM949.955 1211.22C976.468 1222.78 995 1249.23 995 1280C995 1310.77 976.468 1337.22 949.955 1348.78C971.194 1333.33 985 1308.28 985 1280C985 1251.72 971.194 1226.67 949.955 1211.22Z" fill="#C4AC93"/>
<path fill-rule="evenodd" clip-rule="evenodd" d="M880 1115C877.239 1115 875 1117.24 875 1120C875 1166.94 913.056 1205 960 1205C1001.42 1205 1035 1238.58 1035 1280C1035 1321.42 1001.42 1355 960 1355L920.036 1355C946.795 1340.69 965 1312.47 965 1280C965 1233.06 926.944 1195 880 1195C838.579 1195 805 1161.42 805 1120C805 1117.24 802.761 1115 800 1115C797.239 1115 795 1117.24 795 1120C795 1166.94 833.056 1205 880 1205C921.421 1205 955 1238.58 955 1280C955 1321.42 921.421 1355 880 1355C788.873 1355 715 1428.87 715 1520C715 1611.13 788.873 1685 880 1685C1009.79 1685 1115 1790.21 1115 1920C1115 1922.76 1117.24 1925 1120 1925C1122.76 1925 1125 1922.76 1125 1920C1125 1808.83 1050.96 1714.96 949.508 1685L960 1685C1089.79 1685 1195 1790.21 1195 1920C1195 1922.76 1197.24 1925 1200 1925C1202.76 1925 1205 1922.76 1205 1920C1205 1784.69 1095.31 1675 960 1675L880 1675C794.396 1675 725 1605.6 725 1520C725 1478.58 758.579 1445 800 1445L960 1445C1051.13 1445 1125 1371.13 1125 1280C1125 1233.06 1086.94 1195 1040 1195L960 1195C918.579 1195 885 1161.42 885 1120C885 1117.24 882.761 1115 880 1115ZM1000.04 1205L1040 1205C1081.42 1205 1115 1238.58 1115 1280C1115 1365.6 1045.6 1435 960 1435L800 1435C773.881 1435 750.513 1446.78 734.921 1465.32C757.027 1406.7 813.644 1365 880 1365L960 1365C1006.94 1365 1045 1326.94 1045 1280C1045 1247.53 1026.79 1219.31 1000.04 1205Z" fill="black"/>
<path d="M1360 960C1360 1048.37 1288.37 1120 1200 1120C1200 1031.63 1271.63 960 1360 960Z" fill="#E0DDD1"/>
<path fill-rule="evenodd" clip-rule="evenodd" d="M1294.92 1072.32C1273.48 1086.65 1247.72 1095 1220 1095C1218.29 1095 1216.62 1095.17 1215.01 1095.5C1221.36 1089.02 1230.21 1085 1240 1085C1259.7 1085 1278.34 1080.44 1294.92 1072.32ZM1205 1120C1205 1111.72 1211.72 1105 1220 1105C1300.08 1105 1365 1040.08 1365 960H1355C1355 968.284 1348.28 975 1340 975C1259.92 975 1195 1039.92 1195 1120H1205ZM1265.08 1007.68C1286.52 993.353 1312.28 985 1340 985C1341.71 985 1343.38 984.828 1344.99 984.501C1338.64 990.98 1329.79 995 1320 995C1300.3 995 1281.66 999.559 1265.08 1007.68ZM1304.93 1054.93C1286.46 1067.59 1264.09 1075 1240 1075C1234.75 1075 1229.71 1075.9 1225.02 1077.55C1234.53 1069.71 1246.71 1065 1260 1065C1276.08 1065 1291.31 1061.39 1304.93 1054.93ZM1255.07 1025.07C1273.54 1012.41 1295.91 1005 1320 1005C1325.25 1005 1330.29 1004.1 1334.98 1002.45C1325.47 1010.29 1313.29 1015 1300 1015C1283.92 1015 1268.69 1018.61 1255.07 1025.07ZM1314.95 1037.51C1299.44 1048.52 1280.47 1055 1260 1055C1244.9 1055 1231.01 1060.15 1219.98 1068.78C1236.87 1042.45 1266.4 1025 1300 1025C1308.84 1025 1317.28 1023.23 1324.96 1020.03C1312.43 1029.43 1296.87 1035 1280 1035C1277.24 1035 1275 1037.24 1275 1040C1275 1042.76 1277.24 1045 1280 1045C1292.46 1045 1304.29 1042.32 1314.95 1037.51Z" fill="#667868"/>
<path fill-rule="evenodd" clip-rule="evenodd" d="M1365 955H1360C1268.87 955 1195 1028.87 1195 1120V1125H1200C1291.13 1125 1365 1051.13 1365 960L1365 955ZM1214.92 1065.32C1236.46 1008.2 1290.76 967.148 1354.92 965.082C1352.29 1046.62 1286.69 1112.24 1205.17 1114.92C1207.78 1075.87 1240.29 1045 1280 1045C1282.76 1045 1285 1042.76 1285 1040C1285 1037.24 1282.76 1035 1280 1035C1253.88 1035 1230.51 1046.78 1214.92 1065.32Z" fill="black"/>
<path d="M1280 1440C1147.45 1440 1040 1547.45 1040 1680H1120V1600C1120 1511.63 1191.63 1440 1280 1440Z" fill="#E0DDD1"/>
<path fill-rule="evenodd" clip-rule="evenodd" d="M1098.22 1545.13C1077.18 1578.36 1065 1617.76 1065 1660V1680C1065 1682.76 1062.76 1685 1060 1685C1057.24 1685 1055 1682.76 1055 1680V1660C1055 1535.74 1155.74 1435 1280 1435V1445C1183.35 1445 1105 1523.35 1105 1620V1680C1105 1682.76 1102.76 1685 1100 1685C1097.24 1685 1095 1682.76 1095 1680V1620C1095 1589.4 1102.43 1560.54 1115.58 1535.12C1096.22 1565.4 1085 1601.39 1085 1640V1680C1085 1682.76 1082.76 1685 1080 1685C1077.24 1685 1075 1682.76 1075 1680V1640C1075 1605.77 1083.39 1573.5 1098.22 1545.13Z" fill="#C4AC93"/>
<path fill-rule="evenodd" clip-rule="evenodd" d="M1200 1195C1202.76 1195 1205 1197.24 1205 1200C1205 1241.42 1238.58 1275 1280 1275C1326.94 1275 1365 1313.06 1365 1360C1365 1406.94 1326.94 1445 1280 1445C1194.4 1445 1125 1514.4 1125 1600V1680C1125 1682.76 1122.76 1685 1120 1685C1117.24 1685 1115 1682.76 1115 1680V1600C1115 1544.11 1142.79 1494.7 1185.31 1464.86C1102.68 1501.27 1045 1583.9 1045 1680C1045 1682.76 1042.76 1685 1040 1685C1037.24 1685 1035 1682.76 1035 1680C1035 1544.69 1144.69 1435 1280 1435C1321.42 1435 1355 1401.42 1355 1360C1355 1318.58 1321.42 1285 1280 1285C1233.06 1285 1195 1246.94 1195 1200C1195 1197.24 1197.24 1195 1200 1195Z" fill="black"/>
<path d="M400 1920C355.817 1920 320 1884.18 320 1840V1760H240C240 1848.37 311.634 1920 400 1920Z" fill="#E0DDD1"/>
<path fill-rule="evenodd" clip-rule="evenodd" d="M295 1760V1820C295 1836.08 298.614 1851.31 305.073 1864.93C292.409 1846.46 285 1824.09 285 1800V1760H275V1800C275 1819.7 279.559 1838.34 287.68 1854.92C273.353 1833.48 265 1807.72 265 1780V1760H255V1780C255 1860.08 319.919 1925 400 1925V1915C347.533 1915 305 1872.47 305 1820V1760H295Z" fill="#C4AC93"/>
<path fill-rule="evenodd" clip-rule="evenodd" d="M400 1925C308.873 1925 235 1851.13 235 1760H245C245 1826.36 286.697 1882.97 345.319 1905.08C326.781 1889.49 315 1866.12 315 1840V1760H325V1840C325 1881.42 358.579 1915 400 1915C446.944 1915 485 1953.06 485 2000H475C475 1958.58 441.421 1925 400 1925Z" fill="black"/>
<path fill-rule="evenodd" clip-rule="evenodd" d="M640 1925C598.579 1925 565 1958.58 565 2000C565 2113.22 473.218 2205 360 2205C246.782 2205 155 2113.22 155 2000C155 1997.24 157.239 1995 160 1995C162.761 1995 165 1997.24 165 2000C165 2107.7 252.304 2195 360 2195C467.696 2195 555 2107.7 555 2000C555 1953.06 593.056 1915 640 1915C686.944 1915 725 1953.06 725 2000C725 2002.76 722.761 2005 720 2005C717.239 2005 715 2002.76 715 2000C715 1958.58 681.421 1925 640 1925Z" fill="black"/>
<defs>
<linearGradient id="paint0_linear_2919_17182" x1="960" y1="155" x2="960" y2="2399.54" gradientUnits="userSpaceOnUse">
<stop stop-color="#C4AC93" stop-opacity="0"/>
<stop offset="0.355" stop-color="#C4AC93"/>
</linearGradient>
<linearGradient id="paint1_linear_2919_17182" x1="960" y1="155" x2="960" y2="2399.54" gradientUnits="userSpaceOnUse">
<stop stop-color="#C4AC93" stop-opacity="0"/>
<stop offset="0.355" stop-color="#C4AC93"/>
</linearGradient>
<linearGradient id="paint2_linear_2919_17182" x1="960" y1="155" x2="960" y2="2399.54" gradientUnits="userSpaceOnUse">
<stop stop-color="#C4AC93" stop-opacity="0"/>
<stop offset="0.355" stop-color="#C4AC93"/>
</linearGradient>
<linearGradient id="paint3_linear_2919_17182" x1="960" y1="155" x2="960" y2="2399.54" gradientUnits="userSpaceOnUse">
<stop stop-color="#C4AC93" stop-opacity="0"/>
<stop offset="0.355" stop-color="#C4AC93"/>
</linearGradient>
<linearGradient id="paint4_linear_2919_17182" x1="960" y1="155" x2="960" y2="2399.54" gradientUnits="userSpaceOnUse">
<stop stop-color="#C4AC93" stop-opacity="0"/>
<stop offset="0.355" stop-color="#C4AC93"/>
</linearGradient>
<linearGradient id="paint5_linear_2919_17182" x1="960" y1="155" x2="960" y2="2399.54" gradientUnits="userSpaceOnUse">
<stop stop-color="#C4AC93" stop-opacity="0"/>
<stop offset="0.355" stop-color="#C4AC93"/>
</linearGradient>
<linearGradient id="paint6_linear_2919_17182" x1="960" y1="155" x2="960" y2="2399.54" gradientUnits="userSpaceOnUse">
<stop stop-color="#C4AC93" stop-opacity="0"/>
<stop offset="0.355" stop-color="#C4AC93"/>
</linearGradient>
<linearGradient id="paint7_linear_2919_17182" x1="960" y1="155" x2="960" y2="2399.54" gradientUnits="userSpaceOnUse">
<stop stop-color="#C4AC93" stop-opacity="0"/>
<stop offset="0.355" stop-color="#C4AC93"/>
</linearGradient>
<linearGradient id="paint8_linear_2919_17182" x1="960" y1="155" x2="960" y2="2399.54" gradientUnits="userSpaceOnUse">
<stop stop-color="#C4AC93" stop-opacity="0"/>
<stop offset="0.355" stop-color="#C4AC93"/>
</linearGradient>
<linearGradient id="paint9_linear_2919_17182" x1="960" y1="155" x2="960" y2="2399.54" gradientUnits="userSpaceOnUse">
<stop stop-color="#C4AC93" stop-opacity="0"/>
<stop offset="0.355" stop-color="#C4AC93"/>
</linearGradient>
<linearGradient id="paint10_linear_2919_17182" x1="960" y1="155" x2="960" y2="2399.54" gradientUnits="userSpaceOnUse">
<stop stop-color="#C4AC93" stop-opacity="0"/>
<stop offset="0.355" stop-color="#C4AC93"/>
</linearGradient>
<linearGradient id="paint11_linear_2919_17182" x1="960" y1="155" x2="960" y2="2399.54" gradientUnits="userSpaceOnUse">
<stop stop-color="#C4AC93" stop-opacity="0"/>
<stop offset="0.355" stop-color="#C4AC93"/>
</linearGradient>
<linearGradient id="paint12_linear_2919_17182" x1="960" y1="155" x2="960" y2="2399.54" gradientUnits="userSpaceOnUse">
<stop stop-color="#C4AC93" stop-opacity="0"/>
<stop offset="0.355" stop-color="#C4AC93"/>
</linearGradient>
<linearGradient id="paint13_linear_2919_17182" x1="960" y1="155" x2="960" y2="2399.54" gradientUnits="userSpaceOnUse">
<stop stop-color="#C4AC93" stop-opacity="0"/>
<stop offset="0.355" stop-color="#C4AC93"/>
</linearGradient>
<linearGradient id="paint14_linear_2919_17182" x1="960" y1="155" x2="960" y2="2399.54" gradientUnits="userSpaceOnUse">
<stop stop-color="#C4AC93" stop-opacity="0"/>
<stop offset="0.355" stop-color="#C4AC93"/>
</linearGradient>
<linearGradient id="paint15_linear_2919_17182" x1="960" y1="155" x2="960" y2="2399.54" gradientUnits="userSpaceOnUse">
<stop stop-color="#C4AC93" stop-opacity="0"/>
<stop offset="0.355" stop-color="#C4AC93"/>
</linearGradient>
<linearGradient id="paint16_linear_2919_17182" x1="960" y1="155" x2="960" y2="2399.54" gradientUnits="userSpaceOnUse">
<stop stop-color="#C4AC93" stop-opacity="0"/>
<stop offset="0.355" stop-color="#C4AC93"/>
</linearGradient>
<linearGradient id="paint17_linear_2919_17182" x1="960" y1="155" x2="960" y2="2399.54" gradientUnits="userSpaceOnUse">
<stop stop-color="#C4AC93" stop-opacity="0"/>
<stop offset="0.355" stop-color="#C4AC93"/>
</linearGradient>
<linearGradient id="paint18_linear_2919_17182" x1="960" y1="155" x2="960" y2="2399.54" gradientUnits="userSpaceOnUse">
<stop stop-color="#C4AC93" stop-opacity="0"/>
<stop offset="0.355" stop-color="#C4AC93"/>
</linearGradient>
<linearGradient id="paint19_linear_2919_17182" x1="960" y1="155" x2="960" y2="2399.54" gradientUnits="userSpaceOnUse">
<stop stop-color="#C4AC93" stop-opacity="0"/>
<stop offset="0.355" stop-color="#C4AC93"/>
</linearGradient>
<linearGradient id="paint20_linear_2919_17182" x1="960" y1="155" x2="960" y2="2399.54" gradientUnits="userSpaceOnUse">
<stop stop-color="#C4AC93" stop-opacity="0"/>
<stop offset="0.355" stop-color="#C4AC93"/>
</linearGradient>
<linearGradient id="paint21_linear_2919_17182" x1="960" y1="155" x2="960" y2="2399.54" gradientUnits="userSpaceOnUse">
<stop stop-color="#C4AC93" stop-opacity="0"/>
<stop offset="0.355" stop-color="#C4AC93"/>
</linearGradient>
<linearGradient id="paint22_linear_2919_17182" x1="960" y1="155" x2="960" y2="2399.54" gradientUnits="userSpaceOnUse">
<stop stop-color="#C4AC93" stop-opacity="0"/>
<stop offset="0.355" stop-color="#C4AC93"/>
</linearGradient>
<linearGradient id="paint23_linear_2919_17182" x1="960" y1="155" x2="960" y2="2399.54" gradientUnits="userSpaceOnUse">
<stop stop-color="#C4AC93" stop-opacity="0"/>
<stop offset="0.355" stop-color="#C4AC93"/>
</linearGradient>
<linearGradient id="paint24_linear_2919_17182" x1="960" y1="155" x2="960" y2="2399.54" gradientUnits="userSpaceOnUse">
<stop stop-color="#C4AC93" stop-opacity="0"/>
<stop offset="0.355" stop-color="#C4AC93"/>
</linearGradient>
<linearGradient id="paint25_linear_2919_17182" x1="960" y1="155" x2="960" y2="2399.54" gradientUnits="userSpaceOnUse">
<stop stop-color="#C4AC93" stop-opacity="0"/>
<stop offset="0.355" stop-color="#C4AC93"/>
</linearGradient>
<linearGradient id="paint26_linear_2919_17182" x1="960" y1="155" x2="960" y2="2399.54" gradientUnits="userSpaceOnUse">
<stop stop-color="#C4AC93" stop-opacity="0"/>
<stop offset="0.355" stop-color="#C4AC93"/>
</linearGradient>
<linearGradient id="paint27_linear_2919_17182" x1="960" y1="155" x2="960" y2="2399.54" gradientUnits="userSpaceOnUse">
<stop stop-color="#C4AC93" stop-opacity="0"/>
<stop offset="0.355" stop-color="#C4AC93"/>
</linearGradient>
<linearGradient id="paint28_linear_2919_17182" x1="960" y1="155" x2="960" y2="2399.54" gradientUnits="userSpaceOnUse">
<stop stop-color="#C4AC93" stop-opacity="0"/>
<stop offset="0.355" stop-color="#C4AC93"/>
</linearGradient>
<linearGradient id="paint29_linear_2919_17182" x1="960" y1="155" x2="960" y2="2399.54" gradientUnits="userSpaceOnUse">
<stop stop-color="#C4AC93" stop-opacity="0"/>
<stop offset="0.355" stop-color="#C4AC93"/>
</linearGradient>
<linearGradient id="paint30_linear_2919_17182" x1="960" y1="155" x2="960" y2="2399.54" gradientUnits="userSpaceOnUse">
<stop stop-color="#C4AC93" stop-opacity="0"/>
<stop offset="0.355" stop-color="#C4AC93"/>
</linearGradient>
<linearGradient id="paint31_linear_2919_17182" x1="960" y1="155" x2="960" y2="2399.54" gradientUnits="userSpaceOnUse">
<stop stop-color="#C4AC93" stop-opacity="0"/>
<stop offset="0.355" stop-color="#C4AC93"/>
</linearGradient>
<linearGradient id="paint32_linear_2919_17182" x1="960" y1="155" x2="960" y2="2399.54" gradientUnits="userSpaceOnUse">
<stop stop-color="#C4AC93" stop-opacity="0"/>
<stop offset="0.355" stop-color="#C4AC93"/>
</linearGradient>
<linearGradient id="paint33_linear_2919_17182" x1="960" y1="155" x2="960" y2="2399.54" gradientUnits="userSpaceOnUse">
<stop stop-color="#C4AC93" stop-opacity="0"/>
<stop offset="0.355" stop-color="#C4AC93"/>
</linearGradient>
<linearGradient id="paint34_linear_2919_17182" x1="960" y1="155" x2="960" y2="2399.54" gradientUnits="userSpaceOnUse">
<stop stop-color="#C4AC93" stop-opacity="0"/>
<stop offset="0.355" stop-color="#C4AC93"/>
</linearGradient>
<linearGradient id="paint35_linear_2919_17182" x1="960" y1="155" x2="960" y2="2399.54" gradientUnits="userSpaceOnUse">
<stop stop-color="#C4AC93" stop-opacity="0"/>
<stop offset="0.355" stop-color="#C4AC93"/>
</linearGradient>
<linearGradient id="paint36_linear_2919_17182" x1="960" y1="155" x2="960" y2="2399.54" gradientUnits="userSpaceOnUse">
<stop stop-color="#C4AC93" stop-opacity="0"/>
<stop offset="0.355" stop-color="#C4AC93"/>
</linearGradient>
<linearGradient id="paint37_linear_2919_17182" x1="960" y1="155" x2="960" y2="2399.54" gradientUnits="userSpaceOnUse">
<stop stop-color="#C4AC93" stop-opacity="0"/>
<stop offset="0.355" stop-color="#C4AC93"/>
</linearGradient>
<linearGradient id="paint38_linear_2919_17182" x1="960" y1="155" x2="960" y2="2399.54" gradientUnits="userSpaceOnUse">
<stop stop-color="#C4AC93" stop-opacity="0"/>
<stop offset="0.355" stop-color="#C4AC93"/>
</linearGradient>
<linearGradient id="paint39_linear_2919_17182" x1="960" y1="155" x2="960" y2="2399.54" gradientUnits="userSpaceOnUse">
<stop stop-color="#C4AC93" stop-opacity="0"/>
<stop offset="0.355" stop-color="#C4AC93"/>
</linearGradient>
<linearGradient id="paint40_linear_2919_17182" x1="960" y1="155" x2="960" y2="2399.54" gradientUnits="userSpaceOnUse">
<stop stop-color="#C4AC93" stop-opacity="0"/>
<stop offset="0.355" stop-color="#C4AC93"/>
</linearGradient>
<linearGradient id="paint41_linear_2919_17182" x1="960" y1="155" x2="960" y2="2399.54" gradientUnits="userSpaceOnUse">
<stop stop-color="#C4AC93" stop-opacity="0"/>
<stop offset="0.355" stop-color="#C4AC93"/>
</linearGradient>
<linearGradient id="paint42_linear_2919_17182" x1="960" y1="155" x2="960" y2="2399.54" gradientUnits="userSpaceOnUse">
<stop stop-color="#C4AC93" stop-opacity="0"/>
<stop offset="0.355" stop-color="#C4AC93"/>
</linearGradient>
<linearGradient id="paint43_linear_2919_17182" x1="960" y1="155" x2="960" y2="2399.54" gradientUnits="userSpaceOnUse">
<stop stop-color="#C4AC93" stop-opacity="0"/>
<stop offset="0.355" stop-color="#C4AC93"/>
</linearGradient>
<linearGradient id="paint44_linear_2919_17182" x1="960" y1="155" x2="960" y2="2399.54" gradientUnits="userSpaceOnUse">
<stop stop-color="#C4AC93" stop-opacity="0"/>
<stop offset="0.355" stop-color="#C4AC93"/>
</linearGradient>
<linearGradient id="paint45_linear_2919_17182" x1="960" y1="155" x2="960" y2="2399.54" gradientUnits="userSpaceOnUse">
<stop stop-color="#C4AC93" stop-opacity="0"/>
<stop offset="0.355" stop-color="#C4AC93"/>
</linearGradient>
<linearGradient id="paint46_linear_2919_17182" x1="960" y1="155" x2="960" y2="2399.54" gradientUnits="userSpaceOnUse">
<stop stop-color="#C4AC93" stop-opacity="0"/>
<stop offset="0.355" stop-color="#C4AC93"/>
</linearGradient>
<linearGradient id="paint47_linear_2919_17182" x1="960" y1="155" x2="960" y2="2399.54" gradientUnits="userSpaceOnUse">
<stop stop-color="#C4AC93" stop-opacity="0"/>
<stop offset="0.355" stop-color="#C4AC93"/>
</linearGradient>
<linearGradient id="paint48_linear_2919_17182" x1="960" y1="155" x2="960" y2="2399.54" gradientUnits="userSpaceOnUse">
<stop stop-color="#C4AC93" stop-opacity="0"/>
<stop offset="0.355" stop-color="#C4AC93"/>
</linearGradient>
<linearGradient id="paint49_linear_2919_17182" x1="960" y1="155" x2="960" y2="2399.54" gradientUnits="userSpaceOnUse">
<stop stop-color="#C4AC93" stop-opacity="0"/>
<stop offset="0.355" stop-color="#C4AC93"/>
</linearGradient>
<linearGradient id="paint50_linear_2919_17182" x1="960" y1="155" x2="960" y2="2399.54" gradientUnits="userSpaceOnUse">
<stop stop-color="#C4AC93" stop-opacity="0"/>
<stop offset="0.355" stop-color="#C4AC93"/>
</linearGradient>
<linearGradient id="paint51_linear_2919_17182" x1="960" y1="155" x2="960" y2="2399.54" gradientUnits="userSpaceOnUse">
<stop stop-color="#C4AC93" stop-opacity="0"/>
<stop offset="0.355" stop-color="#C4AC93"/>
</linearGradient>
<linearGradient id="paint52_linear_2919_17182" x1="960" y1="155" x2="960" y2="2399.54" gradientUnits="userSpaceOnUse">
<stop stop-color="#C4AC93" stop-opacity="0"/>
<stop offset="0.355" stop-color="#C4AC93"/>
</linearGradient>
<linearGradient id="paint53_linear_2919_17182" x1="960" y1="155" x2="960" y2="2399.54" gradientUnits="userSpaceOnUse">
<stop stop-color="#C4AC93" stop-opacity="0"/>
<stop offset="0.355" stop-color="#C4AC93"/>
</linearGradient>
<linearGradient id="paint54_linear_2919_17182" x1="960" y1="155" x2="960" y2="2399.54" gradientUnits="userSpaceOnUse">
<stop stop-color="#C4AC93" stop-opacity="0"/>
<stop offset="0.355" stop-color="#C4AC93"/>
</linearGradient>
<linearGradient id="paint55_linear_2919_17182" x1="960" y1="155" x2="960" y2="2399.54" gradientUnits="userSpaceOnUse">
<stop stop-color="#C4AC93" stop-opacity="0"/>
<stop offset="0.355" stop-color="#C4AC93"/>
</linearGradient>
<linearGradient id="paint56_linear_2919_17182" x1="960" y1="155" x2="960" y2="2399.54" gradientUnits="userSpaceOnUse">
<stop stop-color="#C4AC93" stop-opacity="0"/>
<stop offset="0.355" stop-color="#C4AC93"/>
</linearGradient>
<linearGradient id="paint57_linear_2919_17182" x1="960" y1="155" x2="960" y2="2399.54" gradientUnits="userSpaceOnUse">
<stop stop-color="#C4AC93" stop-opacity="0"/>
<stop offset="0.355" stop-color="#C4AC93"/>
</linearGradient>
<linearGradient id="paint58_linear_2919_17182" x1="960" y1="155" x2="960" y2="2399.54" gradientUnits="userSpaceOnUse">
<stop stop-color="#C4AC93" stop-opacity="0"/>
<stop offset="0.355" stop-color="#C4AC93"/>
</linearGradient>
<linearGradient id="paint59_linear_2919_17182" x1="960" y1="155" x2="960" y2="2399.54" gradientUnits="userSpaceOnUse">
<stop stop-color="#C4AC93" stop-opacity="0"/>
<stop offset="0.355" stop-color="#C4AC93"/>
</linearGradient>
</defs>
</svg>
