<svg width="1920" height="2560" viewBox="0 0 1920 2560" fill="none" xmlns="http://www.w3.org/2000/svg">
<rect width="1920" height="2560" fill="white"/>
<path d="M160 155C162.761 155 165 157.239 165 160V2000C165 2002.76 162.761 2005 160 2005C157.239 2005 155 2002.76 155 2000V160C155 157.239 157.239 155 160 155Z" fill="black"/>
<path d="M240 155C242.761 155 245 157.239 245 160V2000C245 2002.76 242.761 2005 240 2005C237.239 2005 235 2002.76 235 2000V160C235 157.239 237.239 155 240 155Z" fill="black"/>
<path d="M325 160C325 157.239 322.761 155 320 155C317.239 155 315 157.239 315 160V2000C315 2002.76 317.239 2005 320 2005C322.761 2005 325 2002.76 325 2000V160Z" fill="black"/>
<path d="M400 155C402.761 155 405 157.239 405 160V2240C405 2242.76 402.761 2245 400 2245C397.239 2245 395 2242.76 395 2240V160C395 157.239 397.239 155 400 155Z" fill="black"/>
<path d="M485 160C485 157.239 482.761 155 480 155C477.239 155 475 157.239 475 160V2320C475 2322.76 477.239 2325 480 2325C482.761 2325 485 2322.76 485 2320V160Z" fill="black"/>
<path d="M560 155C562.761 155 565 157.239 565 160V2320C565 2322.76 562.761 2325 560 2325C557.239 2325 555 2322.76 555 2320V160C555 157.239 557.239 155 560 155Z" fill="black"/>
<path d="M645 160C645 157.239 642.761 155 640 155C637.239 155 635 157.239 635 160V2320C635 2322.76 637.239 2325 640 2325C642.761 2325 645 2322.76 645 2320V160Z" fill="black"/>
<path d="M720 155C722.761 155 725 157.239 725 160V2240C725 2242.76 722.761 2245 720 2245C717.239 2245 715 2242.76 715 2240V160C715 157.239 717.239 155 720 155Z" fill="black"/>
<path d="M805 160C805 157.239 802.761 155 800 155C797.239 155 795 157.239 795 160V2240C795 2242.76 797.239 2245 800 2245C802.761 2245 805 2242.76 805 2240V160Z" fill="black"/>
<path d="M880 155C882.761 155 885 157.239 885 160V2240C885 2242.76 882.761 2245 880 2245C877.239 2245 875 2242.76 875 2240V160C875 157.239 877.239 155 880 155Z" fill="black"/>
<path d="M965 160C965 157.239 962.761 155 960 155C957.239 155 955 157.239 955 160V2400C955 2402.76 957.239 2405 960 2405C962.761 2405 965 2402.76 965 2400V160Z" fill="black"/>
<path d="M1040 155C1042.76 155 1045 157.239 1045 160V2240C1045 2242.76 1042.76 2245 1040 2245C1037.24 2245 1035 2242.76 1035 2240V160C1035 157.239 1037.24 155 1040 155Z" fill="black"/>
<path d="M1125 160C1125 157.239 1122.76 155 1120 155C1117.24 155 1115 157.239 1115 160V2240C1115 2242.76 1117.24 2245 1120 2245C1122.76 2245 1125 2242.76 1125 2240V160Z" fill="black"/>
<path d="M1200 155C1202.76 155 1205 157.239 1205 160V2240C1205 2242.76 1202.76 2245 1200 2245C1197.24 2245 1195 2242.76 1195 2240V160C1195 157.239 1197.24 155 1200 155Z" fill="black"/>
<path d="M1285 160C1285 157.239 1282.76 155 1280 155C1277.24 155 1275 157.239 1275 160V2240C1275 2242.76 1277.24 2245 1280 2245C1282.76 2245 1285 2242.76 1285 2240V160Z" fill="black"/>
<path d="M1360 155C1362.76 155 1365 157.239 1365 160V2240C1365 2242.76 1362.76 2245 1360 2245C1357.24 2245 1355 2242.76 1355 2240V160C1355 157.239 1357.24 155 1360 155Z" fill="black"/>
<path d="M1445 160C1445 157.239 1442.76 155 1440 155C1437.24 155 1435 157.239 1435 160V2240C1435 2242.76 1437.24 2245 1440 2245C1442.76 2245 1445 2242.76 1445 2240V160Z" fill="black"/>
<path d="M1520 155C1522.76 155 1525 157.239 1525 160V2240C1525 2242.76 1522.76 2245 1520 2245C1517.24 2245 1515 2242.76 1515 2240V160C1515 157.239 1517.24 155 1520 155Z" fill="black"/>
<path d="M1605 160C1605 157.239 1602.76 155 1600 155C1597.24 155 1595 157.239 1595 160V2080C1595 2082.76 1597.24 2085 1600 2085C1602.76 2085 1605 2082.76 1605 2080V160Z" fill="black"/>
<path d="M1680 155C1682.76 155 1685 157.239 1685 160V2080C1685 2082.76 1682.76 2085 1680 2085C1677.24 2085 1675 2082.76 1675 2080V160C1675 157.239 1677.24 155 1680 155Z" fill="black"/>
<path d="M1765 160C1765 157.239 1762.76 155 1760 155C1757.24 155 1755 157.239 1755 160V2000C1755 2002.76 1757.24 2005 1760 2005C1762.76 2005 1765 2002.76 1765 2000V160Z" fill="black"/>
<path d="M185 2106.77C181.28 2099.3 177.938 2091.6 175 2083.7V160C175 157.239 177.239 155 180 155C182.761 155 185 157.239 185 160V2106.77Z" fill="#C3D7EC"/>
<path d="M205 2139.94C201.484 2135.05 198.147 2130.02 195 2124.87V160C195 157.239 197.239 155 200 155C202.761 155 205 157.239 205 160V2139.94Z" fill="#C3D7EC"/>
<path d="M225 2164.24C221.55 2160.57 218.215 2156.78 215 2152.9V160C215 157.239 217.239 155 220 155C222.761 155 225 157.239 225 160V2164.24Z" fill="#C3D7EC"/>
<path d="M265 2198.46C261.603 2196.14 258.269 2193.74 255 2191.26V160C255 157.239 257.239 155 260 155C262.761 155 265 157.239 265 160V2198.46Z" fill="#C3D7EC"/>
<path d="M285 2210.71C281.616 2208.85 278.282 2206.92 275 2204.92V160C275 157.239 277.239 155 280 155C282.761 155 285 157.239 285 160V2210.71Z" fill="#C3D7EC"/>
<path d="M305 2220.46C301.626 2219.01 298.292 2217.48 295 2215.87V160C295 157.239 297.239 155 300 155C302.761 155 305 157.239 305 160V2220.46Z" fill="#C3D7EC"/>
<path d="M345 2233.67C341.639 2232.88 338.305 2232.02 335 2231.09V160C335 157.239 337.239 155 340 155C342.761 155 345 157.239 345 160V2233.67Z" fill="#C3D7EC"/>
<path d="M365 2237.47C361.644 2236.98 358.31 2236.42 355 2235.79V160C355 157.239 357.239 155 360 155C362.761 155 365 157.239 365 160V2237.47Z" fill="#C3D7EC"/>
<path d="M385 2239.54C381.648 2239.33 378.314 2239.06 375 2238.71V160C375 157.239 377.239 155 380 155C382.761 155 385 157.239 385 160V2239.54Z" fill="#C3D7EC"/>
<path d="M425 2243.98C421.753 2242.92 418.415 2242.05 415 2241.4V160C415 157.239 417.239 155 420 155C422.761 155 425 157.239 425 160V2243.98Z" fill="#C3D7EC"/>
<path d="M445 2253.85C441.823 2251.68 438.482 2249.74 435 2248.04V160C435 157.239 437.239 155 440 155C442.761 155 445 157.239 445 160V2253.85Z" fill="#C3D7EC"/>
<path d="M465 2273.35C462.033 2269.23 458.682 2265.39 455 2261.91V160C455 157.239 457.239 155 460 155C462.761 155 465 157.239 465 160V2273.35Z" fill="#C3D7EC"/>
<path d="M505 2320H495V160C495 157.239 497.239 155 500 155C502.761 155 505 157.239 505 160V2320Z" fill="#C3D7EC"/>
<path d="M525 2320H515V160C515 157.239 517.239 155 520 155C522.761 155 525 157.239 525 160V2320Z" fill="#C3D7EC"/>
<path d="M545 2320H535V160C535 157.239 537.239 155 540 155C542.761 155 545 157.239 545 160V2320Z" fill="#C3D7EC"/>
<path d="M585 2320H575V160C575 157.239 577.239 155 580 155C582.761 155 585 157.239 585 160V2320Z" fill="#C3D7EC"/>
<path d="M605 2320H595V160C595 157.239 597.239 155 600 155C602.761 155 605 157.239 605 160V2320Z" fill="#C3D7EC"/>
<path d="M625 2320H615V160C615 157.239 617.239 155 620 155C622.761 155 625 157.239 625 160V2320Z" fill="#C3D7EC"/>
<path d="M665 2202.91C661.372 2204.38 658.008 2206.36 655 2208.77V160C655 157.239 657.239 155 660 155C662.761 155 665 157.239 665 160V2202.91Z" fill="#C3D7EC"/>
<path d="M685 2200.31C683.362 2200.11 681.693 2200 680 2200C678.307 2200 676.638 2200.11 675 2200.31V160C675 157.239 677.239 155 680 155C682.761 155 685 157.239 685 160V2200.31Z" fill="#C3D7EC"/>
<path d="M705 2208.77C701.992 2206.36 698.628 2204.38 695 2202.91V160C695 157.239 697.239 155 700 155C702.761 155 705 157.239 705 160V2208.77Z" fill="#C3D7EC"/>
<path d="M745 2240H735V160C735 157.239 737.239 155 740 155C742.761 155 745 157.239 745 160V2240Z" fill="#C3D7EC"/>
<path d="M765 2240H755V160C755 157.239 757.239 155 760 155C762.761 155 765 157.239 765 160V2240Z" fill="#C3D7EC"/>
<path d="M785 2240H775V160C775 157.239 777.239 155 780 155C782.761 155 785 157.239 785 160V2240Z" fill="#C3D7EC"/>
<path d="M825 2240H815V160C815 157.239 817.239 155 820 155C822.761 155 825 157.239 825 160V2240Z" fill="#C3D7EC"/>
<path d="M845 2240H835V160C835 157.239 837.239 155 840 155C842.761 155 845 157.239 845 160V2240Z" fill="#C3D7EC"/>
<path d="M865 2240H855V160C855 157.239 857.239 155 860 155C862.761 155 865 157.239 865 160V2240Z" fill="#C3D7EC"/>
<path d="M905 2240H895V160C895 157.239 897.239 155 900 155C902.761 155 905 157.239 905 160V2240Z" fill="#C3D7EC"/>
<path d="M925 2240H915V160C915 157.239 917.239 155 920 155C922.761 155 925 157.239 925 160V2240Z" fill="#C3D7EC"/>
<path d="M945 2240H935V160C935 157.239 937.239 155 940 155C942.761 155 945 157.239 945 160V2240Z" fill="#C3D7EC"/>
<path d="M985 2240H975V160C975 157.239 977.239 155 980 155C982.761 155 985 157.239 985 160V2240Z" fill="#C3D7EC"/>
<path d="M1005 2240H995V160C995 157.239 997.239 155 1000 155C1002.76 155 1005 157.239 1005 160V2240Z" fill="#C3D7EC"/>
<path d="M1025 2240H1015V160C1015 157.239 1017.24 155 1020 155C1022.76 155 1025 157.239 1025 160V2240Z" fill="#C3D7EC"/>
<path d="M1065 2240H1055V160C1055 157.239 1057.24 155 1060 155C1062.76 155 1065 157.239 1065 160V2240Z" fill="#C3D7EC"/>
<path d="M1085 2240H1075V160C1075 157.239 1077.24 155 1080 155C1082.76 155 1085 157.239 1085 160V2240Z" fill="#C3D7EC"/>
<path d="M1105 2240H1095V160C1095 157.239 1097.24 155 1100 155C1102.76 155 1105 157.239 1105 160V2240Z" fill="#C3D7EC"/>
<path d="M1145 2240H1135V160C1135 157.239 1137.24 155 1140 155C1142.76 155 1145 157.239 1145 160V2240Z" fill="#C3D7EC"/>
<path d="M1165 2240H1155V160C1155 157.239 1157.24 155 1160 155C1162.76 155 1165 157.239 1165 160V2240Z" fill="#C3D7EC"/>
<path d="M1185 2240H1175V160C1175 157.239 1177.24 155 1180 155C1182.76 155 1185 157.239 1185 160V2240Z" fill="#C3D7EC"/>
<path d="M1225 2325.92C1221.29 2320.1 1217.95 2314.03 1215 2307.73V160C1215 157.239 1217.24 155 1220 155C1222.76 155 1225 157.239 1225 160V2325.92Z" fill="#C3D7EC"/>
<path d="M1245 2351.24C1241.49 2347.62 1238.15 2343.83 1235 2339.88V160C1235 157.239 1237.24 155 1240 155C1242.76 155 1245 157.239 1245 160V2351.24Z" fill="#C3D7EC"/>
<path d="M1265 2368.76C1261.56 2366.21 1258.22 2363.54 1255 2360.73V160C1255 157.239 1257.24 155 1260 155C1262.76 155 1265 157.239 1265 160V2368.76Z" fill="#C3D7EC"/>
<path d="M1305 2390.3C1301.61 2389.06 1298.28 2387.7 1295 2386.25V160C1295 157.239 1297.24 155 1300 155C1302.76 155 1305 157.239 1305 160V2390.3Z" fill="#C3D7EC"/>
<path d="M1325 2396.16C1321.63 2395.41 1318.29 2394.55 1315 2393.58V160C1315 157.239 1317.24 155 1320 155C1322.76 155 1325 157.239 1325 160V2396.16Z" fill="#C3D7EC"/>
<path d="M1345 2399.31C1341.64 2398.99 1338.3 2398.58 1335 2398.06V160C1335 157.239 1337.24 155 1340 155C1342.76 155 1345 157.239 1345 160V2399.31Z" fill="#C3D7EC"/>
<path d="M1385 2398.06C1381.7 2398.58 1378.36 2398.99 1375 2399.31V160C1375 157.239 1377.24 155 1380 155C1382.76 155 1385 157.239 1385 160V2398.06Z" fill="#C3D7EC"/>
<path d="M1405 2393.58C1401.71 2394.55 1398.37 2395.41 1395 2396.16V160C1395 157.239 1397.24 155 1400 155C1402.76 155 1405 157.239 1405 160V2393.58Z" fill="#C3D7EC"/>
<path d="M1425 2386.25C1421.72 2387.7 1418.39 2389.06 1415 2390.3V160C1415 157.239 1417.24 155 1420 155C1422.76 155 1425 157.239 1425 160V2386.25Z" fill="#C3D7EC"/>
<path d="M1465 2360.73C1461.78 2363.54 1458.44 2366.21 1455 2368.76V160C1455 157.239 1457.24 155 1460 155C1462.76 155 1465 157.239 1465 160V2360.73Z" fill="#C3D7EC"/>
<path d="M1485 2339.88C1481.85 2343.83 1478.51 2347.62 1475 2351.24V160C1475 157.239 1477.24 155 1480 155C1482.76 155 1485 157.239 1485 160V2339.88Z" fill="#C3D7EC"/>
<path d="M1505 2307.73C1502.05 2314.03 1498.71 2320.1 1495 2325.92V160C1495 157.239 1497.24 155 1500 155C1502.76 155 1505 157.239 1505 160V2307.73Z" fill="#C3D7EC"/>
<path d="M1545 2181.91C1541.32 2185.39 1537.97 2189.23 1535 2193.35V160C1535 157.239 1537.24 155 1540 155C1542.76 155 1545 157.239 1545 160V2181.91Z" fill="#C3D7EC"/>
<path d="M1565 2168.04C1561.52 2169.74 1558.18 2171.68 1555 2173.85V160C1555 157.239 1557.24 155 1560 155C1562.76 155 1565 157.239 1565 160V2168.04Z" fill="#C3D7EC"/>
<path d="M1585 2161.4C1581.58 2162.05 1578.25 2162.92 1575 2163.98V160C1575 157.239 1577.24 155 1580 155C1582.76 155 1585 157.239 1585 160V2161.4Z" fill="#C3D7EC"/>
<path d="M1625 2158.06C1621.7 2158.58 1618.36 2158.99 1615 2159.31V160C1615 157.239 1617.24 155 1620 155C1622.76 155 1625 157.239 1625 160V2158.06Z" fill="#C3D7EC"/>
<path d="M1645 2153.58C1641.71 2154.55 1638.37 2155.41 1635 2156.16V160C1635 157.239 1637.24 155 1640 155C1642.76 155 1645 157.239 1645 160V2153.58Z" fill="#C3D7EC"/>
<path d="M1665 2146.25C1661.72 2147.7 1658.39 2149.06 1655 2150.3V160C1655 157.239 1657.24 155 1660 155C1662.76 155 1665 157.239 1665 160V2146.25Z" fill="#C3D7EC"/>
<path d="M1705 2120.73C1701.78 2123.54 1698.44 2126.21 1695 2128.76V160C1695 157.239 1697.24 155 1700 155C1702.76 155 1705 157.239 1705 160V2120.73Z" fill="#C3D7EC"/>
<path d="M1725 2099.88C1721.85 2103.83 1718.51 2107.62 1715 2111.24V160C1715 157.239 1717.24 155 1720 155C1722.76 155 1725 157.239 1725 160V2099.88Z" fill="#C3D7EC"/>
<path d="M1745 2067.73C1742.05 2074.03 1738.71 2080.1 1735 2085.92V160C1735 157.239 1737.24 155 1740 155C1742.76 155 1745 157.239 1745 160V2067.73Z" fill="#C3D7EC"/>
<path d="M480 2320C480 2275.82 444.183 2240 400 2240C267.452 2240 160 2132.55 160 2000H320V2080C320 2124.18 355.817 2160 400 2160C488.366 2160 560 2231.63 560 2320H640C640 2364.18 604.183 2400 560 2400C515.817 2400 480 2364.18 480 2320Z" fill="white"/>
<path d="M1200 2160C1155.82 2160 1120 2195.82 1120 2240L1200 2240H1040C1040 2284.18 1075.82 2320 1120 2320C1164.18 2320 1200 2284.18 1200 2240C1200 2328.37 1271.63 2400 1360 2400C1448.37 2400 1520 2328.37 1520 2240H1280C1280 2195.82 1244.18 2160 1200 2160Z" fill="white"/>
<path d="M1120 560C1164.18 560 1200 524.183 1200 480H1040C1040 524.183 1075.82 560 1120 560Z" fill="white"/>
<path fill-rule="evenodd" clip-rule="evenodd" d="M1060 475C1062.76 475 1065 477.239 1065 480C1065 510.376 1089.62 535 1120 535C1150.38 535 1175 510.376 1175 480C1175 477.239 1177.24 475 1180 475C1182.76 475 1185 477.239 1185 480C1185 515.899 1155.9 545 1120 545C1084.1 545 1055 515.899 1055 480C1055 477.239 1057.24 475 1060 475ZM1080 475C1082.76 475 1085 477.239 1085 480C1085 499.33 1100.67 515 1120 515C1139.33 515 1155 499.33 1155 480C1155 477.239 1157.24 475 1160 475C1162.76 475 1165 477.239 1165 480C1165 504.853 1144.85 525 1120 525C1095.15 525 1075 504.853 1075 480C1075 477.239 1077.24 475 1080 475ZM1100 475C1102.76 475 1105 477.239 1105 480C1105 488.284 1111.72 495 1120 495C1128.28 495 1135 488.284 1135 480C1135 477.239 1137.24 475 1140 475C1142.76 475 1145 477.239 1145 480C1145 493.807 1133.81 505 1120 505C1106.19 505 1095 493.807 1095 480C1095 477.239 1097.24 475 1100 475Z" fill="#C3D7EC"/>
<path d="M1120 485C1122.76 485 1125 482.761 1125 480H1115C1115 482.761 1117.24 485 1120 485Z" fill="black"/>
<path fill-rule="evenodd" clip-rule="evenodd" d="M1040 475C1042.76 475 1045 477.239 1045 480C1045 521.421 1078.58 555 1120 555C1161.42 555 1195 521.421 1195 480C1195 477.239 1197.24 475 1200 475C1202.76 475 1205 477.239 1205 480C1205 526.944 1166.94 565 1120 565C1073.06 565 1035 526.944 1035 480C1035 477.239 1037.24 475 1040 475Z" fill="black"/>
<path d="M560 720C604.183 720 640 684.183 640 640H480C480 684.183 515.817 720 560 720Z" fill="white"/>
<path fill-rule="evenodd" clip-rule="evenodd" d="M500 635C502.761 635 505 637.239 505 640C505 670.376 529.624 695 560 695C590.376 695 615 670.376 615 640C615 637.239 617.239 635 620 635C622.761 635 625 637.239 625 640C625 675.899 595.899 705 560 705C524.101 705 495 675.899 495 640C495 637.239 497.239 635 500 635ZM520 635C522.761 635 525 637.239 525 640C525 659.33 540.67 675 560 675C579.33 675 595 659.33 595 640C595 637.239 597.239 635 600 635C602.761 635 605 637.239 605 640C605 664.853 584.853 685 560 685C535.147 685 515 664.853 515 640C515 637.239 517.239 635 520 635ZM540 635C542.761 635 545 637.239 545 640C545 648.284 551.716 655 560 655C568.284 655 575 648.284 575 640C575 637.239 577.239 635 580 635C582.761 635 585 637.239 585 640C585 653.807 573.807 665 560 665C546.193 665 535 653.807 535 640C535 637.239 537.239 635 540 635Z" fill="#C3D7EC"/>
<path d="M560 645C562.761 645 565 642.761 565 640H555C555 642.761 557.239 645 560 645Z" fill="black"/>
<path fill-rule="evenodd" clip-rule="evenodd" d="M480 635C482.761 635 485 637.239 485 640C485 681.421 518.579 715 560 715C601.421 715 635 681.421 635 640C635 637.239 637.239 635 640 635C642.761 635 645 637.239 645 640C645 686.944 606.944 725 560 725C513.056 725 475 686.944 475 640C475 637.239 477.239 635 480 635Z" fill="black"/>
<path d="M800 640C844.183 640 880 604.183 880 560H720C720 604.183 755.817 640 800 640Z" fill="white"/>
<path fill-rule="evenodd" clip-rule="evenodd" d="M740 555C742.761 555 745 557.239 745 560C745 590.376 769.624 615 800 615C830.376 615 855 590.376 855 560C855 557.239 857.239 555 860 555C862.761 555 865 557.239 865 560C865 595.899 835.899 625 800 625C764.101 625 735 595.899 735 560C735 557.239 737.239 555 740 555ZM760 555C762.761 555 765 557.239 765 560C765 579.33 780.67 595 800 595C819.33 595 835 579.33 835 560C835 557.239 837.239 555 840 555C842.761 555 845 557.239 845 560C845 584.853 824.853 605 800 605C775.147 605 755 584.853 755 560C755 557.239 757.239 555 760 555ZM780 555C782.761 555 785 557.239 785 560C785 568.284 791.716 575 800 575C808.284 575 815 568.284 815 560C815 557.239 817.239 555 820 555C822.761 555 825 557.239 825 560C825 573.807 813.807 585 800 585C786.193 585 775 573.807 775 560C775 557.239 777.239 555 780 555Z" fill="#C3D7EC"/>
<path d="M800 565C802.761 565 805 562.761 805 560H795C795 562.761 797.239 565 800 565Z" fill="black"/>
<path fill-rule="evenodd" clip-rule="evenodd" d="M720 555C722.761 555 725 557.239 725 560C725 601.421 758.579 635 800 635C841.421 635 875 601.421 875 560C875 557.239 877.239 555 880 555C882.761 555 885 557.239 885 560C885 606.944 846.944 645 800 645C753.056 645 715 606.944 715 560C715 557.239 717.239 555 720 555Z" fill="black"/>
<path d="M480 560C524.183 560 560 524.183 560 480H400C400 524.183 435.817 560 480 560Z" fill="white"/>
<path fill-rule="evenodd" clip-rule="evenodd" d="M420 475C422.761 475 425 477.239 425 480C425 510.376 449.624 535 480 535C510.376 535 535 510.376 535 480C535 477.239 537.239 475 540 475C542.761 475 545 477.239 545 480C545 515.899 515.899 545 480 545C444.101 545 415 515.899 415 480C415 477.239 417.239 475 420 475ZM440 475C442.761 475 445 477.239 445 480C445 499.33 460.67 515 480 515C499.33 515 515 499.33 515 480C515 477.239 517.239 475 520 475C522.761 475 525 477.239 525 480C525 504.853 504.853 525 480 525C455.147 525 435 504.853 435 480C435 477.239 437.239 475 440 475ZM460 475C462.761 475 465 477.239 465 480C465 488.284 471.716 495 480 495C488.284 495 495 488.284 495 480C495 477.239 497.239 475 500 475C502.761 475 505 477.239 505 480C505 493.807 493.807 505 480 505C466.193 505 455 493.807 455 480C455 477.239 457.239 475 460 475Z" fill="#C3D7EC"/>
<path d="M480 485C482.761 485 485 482.761 485 480H475C475 482.761 477.239 485 480 485Z" fill="black"/>
<path fill-rule="evenodd" clip-rule="evenodd" d="M400 475C402.761 475 405 477.239 405 480C405 521.421 438.579 555 480 555C521.421 555 555 521.421 555 480C555 477.239 557.239 475 560 475C562.761 475 565 477.239 565 480C565 526.944 526.944 565 480 565C433.056 565 395 526.944 395 480C395 477.239 397.239 475 400 475Z" fill="black"/>
<path d="M800 2320C844.183 2320 880 2284.18 880 2240H720C720 2284.18 755.817 2320 800 2320Z" fill="white"/>
<path d="M800 2245C802.761 2245 805 2242.76 805 2240H795C795 2242.76 797.239 2245 800 2245Z" fill="black"/>
<path d="M560 2325C562.761 2325 565 2322.76 565 2320H555C555 2322.76 557.239 2325 560 2325Z" fill="black"/>
<path d="M1120 2245C1122.76 2245 1125 2242.76 1125 2240H1115C1115 2242.76 1117.24 2245 1120 2245Z" fill="black"/>
<path fill-rule="evenodd" clip-rule="evenodd" d="M1300 2235C1302.76 2235 1305 2237.24 1305 2240C1305 2270.38 1329.62 2295 1360 2295C1390.38 2295 1415 2270.38 1415 2240C1415 2237.24 1417.24 2235 1420 2235C1422.76 2235 1425 2237.24 1425 2240C1425 2275.9 1395.9 2305 1360 2305C1324.1 2305 1295 2275.9 1295 2240C1295 2237.24 1297.24 2235 1300 2235ZM1320 2235C1322.76 2235 1325 2237.24 1325 2240C1325 2259.33 1340.67 2275 1360 2275C1379.33 2275 1395 2259.33 1395 2240C1395 2237.24 1397.24 2235 1400 2235C1402.76 2235 1405 2237.24 1405 2240C1405 2264.85 1384.85 2285 1360 2285C1335.15 2285 1315 2264.85 1315 2240C1315 2237.24 1317.24 2235 1320 2235ZM1340 2235C1342.76 2235 1345 2237.24 1345 2240C1345 2248.28 1351.72 2255 1360 2255C1368.28 2255 1375 2248.28 1375 2240C1375 2237.24 1377.24 2235 1380 2235C1382.76 2235 1385 2237.24 1385 2240C1385 2253.81 1373.81 2265 1360 2265C1346.19 2265 1335 2253.81 1335 2240C1335 2237.24 1337.24 2235 1340 2235Z" fill="#C3D7EC"/>
<path d="M1360 2245C1362.76 2245 1365 2242.76 1365 2240H1355C1355 2242.76 1357.24 2245 1360 2245Z" fill="black"/>
<path d="M1200 2235C1197.24 2235 1195 2237.24 1195 2240L1205 2240C1205 2237.24 1202.76 2235 1200 2235Z" fill="black"/>
<path d="M1440 480C1484.18 480 1520 444.183 1520 400H1360C1360 444.183 1395.82 480 1440 480Z" fill="white"/>
<path fill-rule="evenodd" clip-rule="evenodd" d="M1380 395C1382.76 395 1385 397.239 1385 400C1385 430.376 1409.62 455 1440 455C1470.38 455 1495 430.376 1495 400C1495 397.239 1497.24 395 1500 395C1502.76 395 1505 397.239 1505 400C1505 435.899 1475.9 465 1440 465C1404.1 465 1375 435.899 1375 400C1375 397.239 1377.24 395 1380 395ZM1400 395C1402.76 395 1405 397.239 1405 400C1405 419.33 1420.67 435 1440 435C1459.33 435 1475 419.33 1475 400C1475 397.239 1477.24 395 1480 395C1482.76 395 1485 397.239 1485 400C1485 424.853 1464.85 445 1440 445C1415.15 445 1395 424.853 1395 400C1395 397.239 1397.24 395 1400 395ZM1420 395C1422.76 395 1425 397.239 1425 400C1425 408.284 1431.72 415 1440 415C1448.28 415 1455 408.284 1455 400C1455 397.239 1457.24 395 1460 395C1462.76 395 1465 397.239 1465 400C1465 413.807 1453.81 425 1440 425C1426.19 425 1415 413.807 1415 400C1415 397.239 1417.24 395 1420 395Z" fill="#C3D7EC"/>
<path d="M1440 405C1442.76 405 1445 402.761 1445 400H1435C1435 402.761 1437.24 405 1440 405Z" fill="black"/>
<path fill-rule="evenodd" clip-rule="evenodd" d="M1360 395C1362.76 395 1365 397.239 1365 400C1365 441.421 1398.58 475 1440 475C1481.42 475 1515 441.421 1515 400C1515 397.239 1517.24 395 1520 395C1522.76 395 1525 397.239 1525 400C1525 446.944 1486.94 485 1440 485C1393.06 485 1355 446.944 1355 400C1355 397.239 1357.24 395 1360 395Z" fill="black"/>
<path d="M1360 640C1404.18 640 1440 604.183 1440 560H1280C1280 604.183 1315.82 640 1360 640Z" fill="white"/>
<path fill-rule="evenodd" clip-rule="evenodd" d="M1300 555C1302.76 555 1305 557.239 1305 560C1305 590.376 1329.62 615 1360 615C1390.38 615 1415 590.376 1415 560C1415 557.239 1417.24 555 1420 555C1422.76 555 1425 557.239 1425 560C1425 595.899 1395.9 625 1360 625C1324.1 625 1295 595.899 1295 560C1295 557.239 1297.24 555 1300 555ZM1320 555C1322.76 555 1325 557.239 1325 560C1325 579.33 1340.67 595 1360 595C1379.33 595 1395 579.33 1395 560C1395 557.239 1397.24 555 1400 555C1402.76 555 1405 557.239 1405 560C1405 584.853 1384.85 605 1360 605C1335.15 605 1315 584.853 1315 560C1315 557.239 1317.24 555 1320 555ZM1340 555C1342.76 555 1345 557.239 1345 560C1345 568.284 1351.72 575 1360 575C1368.28 575 1375 568.284 1375 560C1375 557.239 1377.24 555 1380 555C1382.76 555 1385 557.239 1385 560C1385 573.807 1373.81 585 1360 585C1346.19 585 1335 573.807 1335 560C1335 557.239 1337.24 555 1340 555Z" fill="#C3D7EC"/>
<path d="M1360 565C1362.76 565 1365 562.761 1365 560H1355C1355 562.761 1357.24 565 1360 565Z" fill="black"/>
<path fill-rule="evenodd" clip-rule="evenodd" d="M1280 555C1282.76 555 1285 557.239 1285 560C1285 601.421 1318.58 635 1360 635C1401.42 635 1435 601.421 1435 560C1435 557.239 1437.24 555 1440 555C1442.76 555 1445 557.239 1445 560C1445 606.944 1406.94 645 1360 645C1313.06 645 1275 606.944 1275 560C1275 557.239 1277.24 555 1280 555Z" fill="black"/>
<path fill-rule="evenodd" clip-rule="evenodd" d="M1760 1755C1762.76 1755 1765 1757.24 1765 1760C1765 1806.94 1726.94 1845 1680 1845C1594.4 1845 1525 1914.4 1525 2000C1525 2002.76 1522.76 2005 1520 2005C1517.24 2005 1515 2002.76 1515 2000C1515 1908.87 1588.87 1835 1680 1835C1721.42 1835 1755 1801.42 1755 1760C1755 1757.24 1757.24 1755 1760 1755Z" fill="black"/>
<path d="M1280 1120C1324.18 1120 1360 1084.18 1360 1040V960H1440C1440 1048.37 1368.37 1120 1280 1120Z" fill="white"/>
<path fill-rule="evenodd" clip-rule="evenodd" d="M1385 960V1020C1385 1036.08 1381.39 1051.31 1374.93 1064.93C1387.59 1046.46 1395 1024.09 1395 1000V960H1405V1000C1405 1019.7 1400.44 1038.34 1392.32 1054.92C1406.65 1033.48 1415 1007.72 1415 980V960H1425V980C1425 1060.08 1360.08 1125 1280 1125V1115C1332.47 1115 1375 1072.47 1375 1020V960H1385Z" fill="#C3D7EC"/>
<path d="M1200 1440C1155.82 1440 1120 1404.18 1120 1360V1280H1040C1040 1368.37 1111.63 1440 1200 1440Z" fill="white"/>
<path fill-rule="evenodd" clip-rule="evenodd" d="M1095 1280V1340C1095 1356.08 1098.61 1371.31 1105.07 1384.93C1092.41 1366.46 1085 1344.09 1085 1320V1280H1075V1320C1075 1339.7 1079.56 1358.34 1087.68 1374.92C1073.35 1353.48 1065 1327.72 1065 1300V1280H1055V1300C1055 1380.08 1119.92 1445 1200 1445V1435C1147.53 1435 1105 1392.47 1105 1340V1280H1095Z" fill="#C3D7EC"/>
<path fill-rule="evenodd" clip-rule="evenodd" d="M295 2000V2060C295 2076.08 298.614 2091.31 305.073 2104.93C292.409 2086.46 285 2064.09 285 2040V2000H275V2040C275 2059.7 279.559 2078.34 287.68 2094.92C273.353 2073.48 265 2047.72 265 2020V2000H255V2020C255 2100.08 319.919 2165 400 2165V2155C347.533 2155 305 2112.47 305 2060V2000H295Z" fill="#C3D7EC"/>
<path d="M960 1040C1004.18 1040 1040 1004.18 1040 960V880H1120C1120 968.366 1048.37 1040 960 1040Z" fill="white"/>
<path fill-rule="evenodd" clip-rule="evenodd" d="M1065 880V940C1065 956.078 1061.39 971.312 1054.93 984.934C1067.59 966.456 1075 944.093 1075 920V880H1085V920C1085 939.704 1080.44 958.343 1072.32 974.92C1086.65 953.484 1095 927.718 1095 900V880H1105V900C1105 980.081 1040.08 1045 960 1045V1035C1012.47 1035 1055 992.467 1055 940V880H1065Z" fill="#C3D7EC"/>
<path d="M1045 1280C1045 1346.36 1086.7 1402.97 1145.32 1425.08C1126.78 1409.49 1115 1386.12 1115 1360V1280H1125V1360C1125 1401.42 1158.58 1435 1200 1435L1280 1435C1326.94 1435 1365 1473.06 1365 1520C1365 1566.94 1326.94 1605 1280 1605C1277.24 1605 1275 1602.76 1275 1600C1275 1597.24 1277.24 1595 1280 1595C1321.42 1595 1355 1561.42 1355 1520C1355 1478.58 1321.42 1445 1280 1445H1200C1108.87 1445 1035 1371.13 1035 1280H1045Z" fill="black"/>
<path d="M1520 1440C1520 1351.63 1448.37 1280 1360 1280C1271.63 1280 1200 1208.37 1200 1120V1200C1200 1288.37 1271.63 1360 1360 1360C1404.18 1360 1440 1395.82 1440 1440C1440 1528.37 1368.37 1600 1280 1600C1059.09 1600 880 1779.09 880 2000V2240H960V2000C960 1823.27 1103.27 1680 1280 1680C1412.55 1680 1520 1572.55 1520 1440Z" fill="white"/>
<path fill-rule="evenodd" clip-rule="evenodd" d="M1445 560C1445 557.239 1442.76 555 1440 555C1437.24 555 1435 557.239 1435 560V640C1435 686.944 1473.06 725 1520 725C1561.42 725 1595 758.579 1595 800C1595 866.356 1553.3 922.973 1494.68 945.079C1513.22 929.487 1525 906.119 1525 880C1525 833.056 1486.94 795 1440 795C1398.58 795 1365 761.421 1365 720C1365 717.239 1362.76 715 1360 715C1357.24 715 1355 717.239 1355 720C1355 752.469 1373.21 780.686 1399.96 795H1280C1194.4 795 1125 725.604 1125 640C1125 637.239 1122.76 635 1120 635C1117.24 635 1115 637.239 1115 640C1115 731.127 1188.87 805 1280 805H1440C1481.42 805 1515 838.579 1515 880C1515 921.421 1481.42 955 1440 955L1360 955C1268.87 955 1195 1028.87 1195 1120V1200C1195 1291.13 1268.87 1365 1360 1365C1401.42 1365 1435 1398.58 1435 1440C1435 1525.6 1365.6 1595 1280 1595C1056.32 1595 875 1776.32 875 2000V2240C875 2242.76 877.239 2245 880 2245C882.761 2245 885 2242.76 885 2240V2000C885 1826.14 1025.86 1685.17 1199.68 1685C1059.04 1720.75 955 1848.23 955 2000V2240C955 2242.76 957.239 2245 960 2245C962.761 2245 965 2242.76 965 2240V2000C965 1826.03 1106.03 1685 1280 1685C1415.31 1685 1525 1575.31 1525 1440C1525 1348.87 1451.13 1275 1360 1275C1290.95 1275 1232.45 1229.85 1212.4 1167.47C1224.52 1142.34 1250.23 1125 1280 1125C1369.48 1125 1442.32 1053.78 1444.93 964.928C1533.78 962.322 1605 889.479 1605 800C1605 753.056 1566.94 715 1520 715C1478.58 715 1445 681.421 1445 640V560ZM1205 1200C1205 1285.6 1274.4 1355 1360 1355C1392.47 1355 1420.69 1373.21 1435 1399.96V1360C1435 1318.58 1401.42 1285 1360 1285C1290.88 1285 1231.68 1242.5 1207.13 1182.2C1205.74 1187.9 1205 1193.87 1205 1200ZM1208.68 1153.74C1223.84 1130.42 1250.12 1115 1280 1115C1321.42 1115 1355 1081.42 1355 1040V965.079C1271.71 967.719 1205 1036.07 1205 1120C1205 1131.59 1206.27 1142.88 1208.68 1153.74ZM1365 1040V965L1434.92 965C1432.89 1029.19 1391.82 1083.53 1334.68 1105.08C1353.22 1089.49 1365 1066.12 1365 1040ZM1445 1360C1445 1333.88 1433.22 1310.51 1414.68 1294.92C1473.3 1317.03 1515 1373.64 1515 1440C1515 1525.6 1445.6 1595 1360 1595H1336.7C1399.9 1571.88 1445 1511.21 1445 1440V1360ZM1360 1605C1415.89 1605 1465.3 1577.21 1495.14 1534.69C1458.73 1617.32 1376.1 1675 1280 1675H1200C1084.03 1675 982.249 1735.74 924.731 1827.14C988.843 1695.62 1123.84 1605 1280 1605H1360Z" fill="black"/>
<path d="M800 1120C779.313 1120 759.237 1122.62 740.085 1127.54C678.451 1185.87 640 1268.44 640 1360C640 1448.37 711.634 1520 800 1520C932.548 1520 1040 1627.45 1040 1760V2240H960V1760C960 1671.63 888.366 1600 800 1600C667.452 1600 560 1492.55 560 1360C560 1248.14 636.528 1154.15 740.085 1127.54C778.67 1091.02 826.34 1064.01 879.35 1050.25C874.318 1089.59 840.71 1120 800 1120Z" fill="white"/>
<path fill-rule="evenodd" clip-rule="evenodd" d="M800 715C802.761 715 805 717.239 805 720C805 766.944 766.944 805 720 805C678.579 805 645 838.579 645 880C645 921.403 678.549 954.971 719.946 955H800C846.944 955 885 993.056 885 1040C885 1041.24 884.973 1042.48 884.92 1043.72C909.021 1038.02 934.158 1035 960 1035C1001.42 1035 1035 1001.42 1035 960V880H1045V960C1045 986.119 1033.22 1009.49 1014.68 1025.08C1073.3 1002.97 1115 946.356 1115 880H1125C1125 971.127 1051.13 1045 960 1045C933.727 1045 908.205 1048.22 883.806 1054.28C877.016 1094.42 842.079 1125 800 1125C780.192 1125 760.957 1127.45 742.581 1132.07C682.459 1189.43 645 1270.34 645 1360C645 1445.6 714.396 1515 800 1515C935.31 1515 1045 1624.69 1045 1760V2240C1045 2242.76 1042.76 2245 1040 2245C1037.24 2245 1035 2242.76 1035 2240V1840C1035 1743.9 977.317 1661.27 894.687 1624.86C937.207 1654.7 965 1704.11 965 1760V2240C965 2242.76 962.761 2245 960 2245C957.239 2245 955 2242.76 955 2240V1760C955 1674.4 885.604 1605 800 1605C664.69 1605 555 1495.31 555 1360C555 1246.26 632.509 1150.62 737.59 1123.02C775.793 1087.15 822.671 1060.42 874.739 1046.3C874.912 1044.22 875 1042.12 875 1040C875 998.579 841.421 965 800 965H640C548.873 965 475 891.127 475 800C475 797.239 477.239 795 480 795C482.761 795 485 797.239 485 800C485 885.604 554.396 955 640 955H663.301C600.104 931.876 555 871.205 555 800C555 797.239 557.239 795 560 795C562.761 795 565 797.239 565 800C565 866.356 606.697 922.973 665.319 945.079C646.781 929.487 635 906.119 635 880C635 833.056 673.056 795 720 795C761.421 795 795 761.421 795 720C795 717.239 797.239 715 800 715ZM800 1595C911.165 1595 1005.04 1669.04 1035 1770.49V1760C1035 1630.21 929.787 1525 800 1525H720C664.105 1525 614.702 1497.21 584.855 1454.69C621.274 1537.32 703.901 1595 800 1595ZM635 1360C635 1431.21 680.104 1491.88 743.301 1515H720C634.396 1515 565 1445.6 565 1360C565 1257.33 630.835 1170.05 722.592 1138.05C668.26 1196.14 635 1274.19 635 1360ZM873.028 1057.16C830.069 1069.47 790.869 1090.68 757.548 1118.66C771.337 1116.26 785.522 1115 800 1115C835.517 1115 865.268 1090.31 873.028 1057.16Z" fill="black"/>
<path d="M640 1440C684.183 1440 720 1404.18 720 1360C720 1315.82 684.183 1280 640 1280C662.091 1280 680 1297.91 680 1320C680 1342.09 662.091 1360 640 1360C558.403 1360 491.073 1421.08 481.236 1500.01C431.419 1543.99 400 1608.33 400 1680C400 1812.55 507.452 1920 640 1920C772.548 1920 880 2027.45 880 2160V1920C880 1787.45 772.548 1680 640 1680C565.446 1680 502.802 1629.01 485.041 1560C502.802 1490.99 565.446 1440 640 1440Z" fill="white"/>
<path fill-rule="evenodd" clip-rule="evenodd" d="M640 1285V1275C686.944 1275 725 1313.06 725 1360C725 1406.94 686.944 1445 640 1445C568.233 1445 507.846 1493.78 490.209 1560C507.846 1626.22 568.233 1675 640 1675C775.31 1675 885 1784.69 885 1920V2160H875C875 2030.21 769.787 1925 640 1925C504.69 1925 395 1815.31 395 1680C395 1607.51 426.489 1542.37 476.52 1497.52C487.49 1417.02 556.498 1355 640 1355C659.33 1355 675 1339.33 675 1320C675 1300.67 659.33 1285 640 1285ZM405.052 1675C405.017 1676.66 405 1678.33 405 1680C405 1809.79 510.213 1915 640 1915C727.617 1915 804.492 1960.99 847.799 2030.15C808.367 1955.71 730.106 1905 640 1905C511.884 1905 407.713 1802.48 405.052 1675ZM847.799 1830.15C808.367 1755.71 730.106 1705 640 1705C582.028 1705 531.041 1675.1 501.612 1629.89C527.164 1680.38 579.54 1715 640 1715C727.617 1715 804.492 1760.99 847.799 1830.15ZM501.608 1609.88C527.158 1660.38 579.538 1695 640 1695C727.617 1695 804.492 1740.99 847.799 1810.15C808.367 1735.71 730.106 1685 640 1685C582.022 1685 531.035 1655.1 501.608 1609.88ZM553.243 1451.53C580.088 1440.87 609.363 1435 640 1435C681.421 1435 715 1401.42 715 1360C715 1358.32 714.945 1356.65 714.836 1355C712.263 1394.09 679.741 1425 640 1425C607.857 1425 578.001 1434.78 553.243 1451.53ZM684.725 1325C682.238 1347.5 663.163 1365 640 1365C579.538 1365 527.158 1399.62 501.608 1450.12C531.035 1404.9 582.022 1375 640 1375C664.853 1375 685 1354.85 685 1330C685 1328.31 684.907 1326.64 684.725 1325ZM415.054 1665C415.018 1666.66 415 1668.33 415 1670C415 1794.26 515.736 1895 640 1895C727.617 1895 804.492 1940.99 847.799 2010.15C808.367 1935.71 730.106 1885 640 1885C517.407 1885 417.713 1786.95 415.054 1665ZM847.799 1850.15C804.492 1780.99 727.617 1735 640 1735C579.543 1735 527.17 1700.39 501.617 1649.9C531.047 1695.11 582.032 1725 640 1725C730.106 1725 808.367 1775.71 847.799 1850.15ZM517.59 1469.36C547.776 1435.98 591.441 1415 640 1415C675.899 1415 705 1385.9 705 1350C705 1348.32 704.936 1346.65 704.811 1345C702.257 1378.56 674.216 1405 640 1405C586.586 1405 539.474 1432.02 511.599 1473.15C513.575 1471.86 515.572 1470.59 517.59 1469.36ZM501.608 1470.12C531.032 1424.91 582.02 1395 640 1395C670.376 1395 695 1370.38 695 1340C695 1338.31 694.924 1336.65 694.776 1335C692.25 1363.03 668.69 1385 640 1385C579.541 1385 527.159 1419.62 501.608 1470.12ZM425.057 1655C425.019 1656.66 425 1658.33 425 1660C425 1778.74 521.259 1875 640 1875C727.617 1875 804.492 1920.99 847.799 1990.15C808.367 1915.71 730.106 1865 640 1865C522.93 1865 427.714 1771.43 425.057 1655ZM466.911 1540.11C446.703 1571.87 435 1609.56 435 1650C435 1763.22 526.782 1855 640 1855C747.228 1855 838.367 1923.89 871.578 2019.82C852.514 1909.17 756.087 1825 640 1825C532.305 1825 445 1737.7 445 1630C445 1597.59 452.912 1567.01 466.911 1540.11ZM455.066 1625C455.022 1626.66 455 1628.33 455 1630C455 1732.17 537.827 1815 640 1815C727.617 1815 804.492 1860.99 847.799 1930.15C808.367 1855.71 730.106 1805 640 1805C539.499 1805 457.716 1724.86 455.066 1625ZM465.07 1615C465.023 1616.66 465 1618.33 465 1620C465 1716.65 543.35 1795 640 1795C727.617 1795 804.492 1840.99 847.799 1910.15C808.367 1835.71 730.106 1785 640 1785C545.022 1785 467.716 1709.34 465.07 1615ZM475.672 1595C475.227 1599.94 475 1604.94 475 1610C475 1701.13 548.873 1775 640 1775C747.228 1775 838.367 1843.89 871.578 1939.82C852.514 1829.17 756.087 1745 640 1745C553.929 1745 483.25 1679.1 475.672 1595Z" fill="#C3D7EC"/>
<path d="M640 1445C554.396 1445 485 1514.4 485 1600C485 1685.6 554.396 1755 640 1755C775.31 1755 885 1864.69 885 2000C885 2002.76 882.761 2005 880 2005C877.239 2005 875 2002.76 875 2000C875 1870.21 769.787 1765 640 1765C548.873 1765 475 1691.13 475 1600C475 1555.26 492.809 1514.67 521.726 1484.95C475.088 1520.58 445 1576.78 445 1640C445 1747.7 532.305 1835 640 1835C775.31 1835 885 1944.69 885 2080C885 2082.76 882.761 2085 880 2085C877.239 2085 875 2082.76 875 2080C875 1950.21 769.787 1845 640 1845C526.782 1845 435 1753.22 435 1640C435 1583.34 457.988 1532.05 495.147 1494.94C440.265 1537.96 405 1604.86 405 1680C405 1809.79 510.213 1915 640 1915C642.761 1915 645 1917.24 645 1920C645 1922.76 642.761 1925 640 1925C504.69 1925 395 1815.31 395 1680C395 1544.69 504.69 1435 640 1435C642.761 1435 645 1437.24 645 1440C645 1442.76 642.761 1445 640 1445Z" fill="black"/>
<path fill-rule="evenodd" clip-rule="evenodd" d="M635 1280C635 1277.24 637.239 1275 640 1275C686.944 1275 725 1313.06 725 1360C725 1406.94 686.944 1445 640 1445C568.233 1445 507.846 1493.78 490.209 1560C507.846 1626.22 568.233 1675 640 1675C775.31 1675 885 1784.69 885 1920V2160C885 2162.76 882.761 2165 880 2165C877.239 2165 875 2162.76 875 2160C875 2030.21 769.787 1925 640 1925C504.69 1925 395 1815.31 395 1680C395 1607.51 426.489 1542.37 476.52 1497.52C487.49 1417.02 556.498 1355 640 1355C659.33 1355 675 1339.33 675 1320C675 1300.67 659.33 1285 640 1285C637.239 1285 635 1282.76 635 1280ZM677.41 1294.98C682.204 1302.14 685 1310.74 685 1320C685 1344.85 664.853 1365 640 1365C560.957 1365 495.726 1424.17 486.198 1500.63C486.047 1501.84 485.459 1502.95 484.545 1503.76C435.758 1546.83 405 1609.82 405 1680C405 1809.79 510.213 1915 640 1915C751.165 1915 845.038 1989.04 875 2090.49V1920C875 1790.21 769.787 1685 640 1685C563.11 1685 498.515 1632.41 480.199 1561.25C479.988 1560.43 479.988 1559.57 480.199 1558.75C498.515 1487.59 563.11 1435 640 1435C681.421 1435 715 1401.42 715 1360C715 1332.2 699.877 1307.94 677.41 1294.98Z" fill="black"/>
<path fill-rule="evenodd" clip-rule="evenodd" d="M485 1200C485 1241.42 518.579 1275 560 1275L640 1275C642.761 1275 645 1277.24 645 1280C645 1282.76 642.761 1285 640 1285L560 1285C513.056 1285 475 1246.94 475 1200C475 1197.24 477.239 1195 480 1195C482.761 1195 485 1197.24 485 1200Z" fill="black"/>
<path d="M320 1040C320 1128.37 391.634 1200 480 1200C480 1111.63 408.366 1040 320 1040Z" fill="white"/>
<path fill-rule="evenodd" clip-rule="evenodd" d="M385.08 1152.32C406.516 1166.65 432.282 1175 460 1175C461.71 1175 463.38 1175.17 464.994 1175.5C458.642 1169.02 449.79 1165 440 1165C420.296 1165 401.657 1160.44 385.08 1152.32ZM475 1200C475 1191.72 468.284 1185 460 1185C379.919 1185 315 1120.08 315 1040H325C325 1048.28 331.716 1055 340 1055C420.081 1055 485 1119.92 485 1200H475ZM414.92 1087.68C393.484 1073.35 367.718 1065 340 1065C338.29 1065 336.62 1064.83 335.006 1064.5C341.358 1070.98 350.21 1075 360 1075C379.704 1075 398.343 1079.56 414.92 1087.68ZM375.066 1134.93C393.544 1147.59 415.907 1155 440 1155C445.251 1155 450.292 1155.9 454.977 1157.55C445.471 1149.71 433.285 1145 420 1145C403.922 1145 388.688 1141.39 375.066 1134.93ZM424.934 1105.07C406.456 1092.41 384.093 1085 360 1085C354.749 1085 349.708 1084.1 345.023 1082.45C354.529 1090.29 366.715 1095 380 1095C396.078 1095 411.312 1098.61 424.934 1105.07ZM365.053 1117.51C380.564 1128.52 399.526 1135 420 1135C435.096 1135 448.99 1140.15 460.023 1148.78C443.134 1122.45 413.605 1105 380 1105C371.156 1105 362.724 1103.23 355.039 1100.03C367.567 1109.43 383.133 1115 400 1115C402.761 1115 405 1117.24 405 1120C405 1122.76 402.761 1125 400 1125C387.543 1125 375.713 1122.32 365.053 1117.51Z" fill="#C3D7EC"/>
<path fill-rule="evenodd" clip-rule="evenodd" d="M315 1035H320C411.127 1035 485 1108.87 485 1200V1205H480C388.873 1205 315 1131.13 315 1040L315 1035ZM465.079 1145.32C443.54 1088.2 389.235 1047.15 325.082 1045.08C327.708 1126.62 393.306 1192.24 474.83 1194.92C472.216 1155.87 439.713 1125 400 1125C397.239 1125 395 1122.76 395 1120C395 1117.24 397.239 1115 400 1115C426.119 1115 449.487 1126.78 465.079 1145.32Z" fill="black"/>
<path d="M1600 2160C1555.82 2160 1520 2195.82 1520 2240V2160C1520 2115.82 1555.82 2080 1600 2080C1688.37 2080 1760 2008.37 1760 1920V2000C1760 2088.37 1688.37 2160 1600 2160Z" fill="white"/>
<path fill-rule="evenodd" clip-rule="evenodd" d="M1760 1935C1762.76 1935 1765 1937.24 1765 1940C1765 1945.8 1764.7 1951.52 1764.12 1957.16C1764.67 1957.97 1765 1958.95 1765 1960C1765 1965.8 1764.7 1971.52 1764.12 1977.16C1764.67 1977.97 1765 1978.95 1765 1980C1765 2071.13 1691.13 2145 1600 2145C1558.58 2145 1525 2178.58 1525 2220C1525 2222.76 1522.76 2225 1520 2225C1517.24 2225 1515 2222.76 1515 2220C1515 2214.4 1515.54 2208.93 1516.57 2203.64C1515.6 2202.73 1515 2201.44 1515 2200C1515 2194.4 1515.54 2188.93 1516.57 2183.64C1515.6 2182.73 1515 2181.44 1515 2180C1515 2133.06 1553.06 2095 1600 2095C1685.6 2095 1755 2025.6 1755 1940C1755 1937.24 1757.24 1935 1760 1935ZM1531.22 2170.05C1546.67 2148.81 1571.72 2135 1600 2135C1660.46 2135 1712.83 2100.39 1738.38 2049.9C1708.95 2095.11 1657.97 2125 1600 2125C1569.23 2125 1542.78 2143.53 1531.22 2170.05ZM1738.38 2029.9C1712.83 2080.39 1660.46 2115 1600 2115C1571.72 2115 1546.67 2128.81 1531.22 2150.05C1542.78 2123.53 1569.23 2105 1600 2105C1657.97 2105 1708.95 2075.11 1738.38 2029.9Z" fill="#C3D7EC"/>
<path fill-rule="evenodd" clip-rule="evenodd" d="M1200 2185C1169.62 2185 1145 2209.62 1145 2240C1145 2253.81 1133.81 2265 1120 2265C1106.19 2265 1095 2253.81 1095 2240C1095 2237.24 1097.24 2235 1100 2235C1102.76 2235 1105 2237.24 1105 2240C1105 2248.28 1111.72 2255 1120 2255C1128.28 2255 1135 2248.28 1135 2240C1135 2204.1 1164.1 2175 1200 2175C1235.9 2175 1265 2204.1 1265 2240C1265 2292.47 1307.53 2335 1360 2335C1412.47 2335 1455 2292.47 1455 2240C1455 2237.24 1457.24 2235 1460 2235C1462.76 2235 1465 2237.24 1465 2240C1465 2297.99 1417.99 2345 1360 2345C1302.01 2345 1255 2297.99 1255 2240C1255 2209.62 1230.38 2185 1200 2185ZM1200 2205C1180.67 2205 1165 2220.67 1165 2240C1165 2264.85 1144.85 2285 1120 2285C1095.15 2285 1075 2264.85 1075 2240C1075 2237.24 1077.24 2235 1080 2235C1082.76 2235 1085 2237.24 1085 2240C1085 2259.33 1100.67 2275 1120 2275C1139.33 2275 1155 2259.33 1155 2240C1155 2215.15 1175.15 2195 1200 2195C1224.85 2195 1245 2215.15 1245 2240C1245 2303.51 1296.49 2355 1360 2355C1423.51 2355 1475 2303.51 1475 2240C1475 2237.24 1477.24 2235 1480 2235C1482.76 2235 1485 2237.24 1485 2240C1485 2309.04 1429.04 2365 1360 2365C1290.96 2365 1235 2309.04 1235 2240C1235 2220.67 1219.33 2205 1200 2205ZM1200 2225C1191.72 2225 1185 2231.72 1185 2240C1185 2275.9 1155.9 2305 1120 2305C1084.1 2305 1055 2275.9 1055 2240C1055 2237.24 1057.24 2235 1060 2235C1062.76 2235 1065 2237.24 1065 2240C1065 2270.38 1089.62 2295 1120 2295C1150.38 2295 1175 2270.38 1175 2240C1175 2226.19 1186.19 2215 1200 2215C1213.81 2215 1225 2226.19 1225 2240C1225 2314.56 1285.44 2375 1360 2375C1434.56 2375 1495 2314.56 1495 2240C1495 2237.24 1497.24 2235 1500 2235C1502.76 2235 1505 2237.24 1505 2240C1505 2320.08 1440.08 2385 1360 2385C1279.92 2385 1215 2320.08 1215 2240C1215 2231.72 1208.28 2225 1200 2225Z" fill="#C3D7EC"/>
<path d="M1200 2080C1111.63 2080 1040 2151.63 1040 2240V2080C1040 1991.63 1111.63 1920 1200 1920C1332.55 1920 1440 1812.55 1440 1680V1840C1440 1972.55 1332.55 2080 1200 2080Z" fill="white"/>
<path fill-rule="evenodd" clip-rule="evenodd" d="M1440 1695C1442.76 1695 1445 1697.24 1445 1700C1445 1705.91 1444.79 1711.78 1444.38 1717.58C1444.77 1718.3 1445 1719.12 1445 1720C1445 1725.91 1444.79 1731.78 1444.38 1737.58C1444.77 1738.3 1445 1739.12 1445 1740C1445 1752.1 1444.12 1764 1442.43 1775.63C1443.96 1776.48 1445 1778.12 1445 1780C1445 1785.91 1444.79 1791.78 1444.38 1797.58C1444.77 1798.3 1445 1799.12 1445 1800C1445 1805.91 1444.79 1811.78 1444.38 1817.58C1444.77 1818.3 1445 1819.12 1445 1820C1445 1955.31 1335.31 2065 1200 2065C1114.4 2065 1045 2134.4 1045 2220C1045 2222.76 1042.76 2225 1040 2225C1037.24 2225 1035 2222.76 1035 2220C1035 2214.2 1035.3 2208.48 1035.88 2202.84C1035.33 2202.03 1035 2201.05 1035 2200C1035 2194.2 1035.3 2188.48 1035.88 2182.84C1035.33 2182.03 1035 2181.05 1035 2180C1035 2167.93 1036.29 2156.17 1038.75 2144.84C1036.6 2144.29 1035 2142.33 1035 2140C1035 2134.2 1035.3 2128.48 1035.88 2122.84C1035.33 2122.03 1035 2121.05 1035 2120C1035 2114.2 1035.3 2108.48 1035.88 2102.84C1035.33 2102.03 1035 2101.05 1035 2100C1035 2008.87 1108.87 1935 1200 1935C1329.79 1935 1435 1829.79 1435 1700C1435 1697.24 1437.24 1695 1440 1695ZM1061.62 2050.1C1091.05 2004.89 1142.03 1975 1200 1975C1290.11 1975 1368.37 1924.29 1407.8 1849.85C1364.49 1919.01 1287.62 1965 1200 1965C1139.54 1965 1087.17 1999.61 1061.62 2050.1ZM1407.8 1829.85C1368.37 1904.29 1290.11 1955 1200 1955C1142.03 1955 1091.05 1984.89 1061.62 2030.1C1087.17 1979.61 1139.54 1945 1200 1945C1287.62 1945 1364.49 1899.01 1407.8 1829.85ZM1431.58 1820.18C1398.37 1916.11 1307.23 1985 1200 1985C1121.21 1985 1056.16 2043.78 1046.29 2119.88C1070.33 2058.49 1130.08 2015 1200 2015C1316.09 2015 1412.51 1930.83 1431.58 1820.18ZM1061.62 2130.1C1091.05 2084.89 1142.03 2055 1200 2055C1290.11 2055 1368.37 2004.29 1407.8 1929.85C1364.49 1999.01 1287.62 2045 1200 2045C1139.54 2045 1087.17 2079.61 1061.62 2130.1ZM1407.8 1909.85C1368.37 1984.29 1290.11 2035 1200 2035C1142.03 2035 1091.05 2064.89 1061.62 2110.1C1087.17 2059.61 1139.54 2025 1200 2025C1287.62 2025 1364.49 1979.01 1407.8 1909.85Z" fill="#C3D7EC"/>
<path fill-rule="evenodd" clip-rule="evenodd" d="M1200 1915C1329.79 1915 1435 1809.79 1435 1680H1445V1840C1445 1975.31 1335.31 2085 1200 2085C1114.4 2085 1045 2154.4 1045 2240C1045 2281.42 1078.58 2315 1120 2315C1161.42 2315 1195 2281.42 1195 2240C1195 2237.24 1197.24 2235 1200 2235C1202.76 2235 1205 2237.24 1205 2240C1205 2325.6 1274.4 2395 1360 2395C1445.6 2395 1515 2325.6 1515 2240V2160C1515 2113.06 1553.06 2075 1600 2075C1685.6 2075 1755 2005.6 1755 1920H1765V2000C1765 2091.13 1691.13 2165 1600 2165C1558.58 2165 1525 2198.58 1525 2240C1525 2331.13 1451.13 2405 1360 2405C1280.21 2405 1213.64 2348.36 1198.32 2273.09C1185.41 2303.6 1155.21 2325 1120 2325C1073.06 2325 1035 2286.94 1035 2240V2080C1035 1988.87 1108.87 1915 1200 1915ZM1435 1749.51V1760C1435 1889.79 1329.79 1995 1200 1995C1128.79 1995 1068.12 2040.1 1045 2103.3V2080C1045 1994.4 1114.4 1925 1200 1925C1311.17 1925 1405.04 1850.96 1435 1749.51ZM1200 2005C1114.4 2005 1045 2074.4 1045 2160V2183.3C1068.12 2120.1 1128.79 2075 1200 2075C1329.79 2075 1435 1969.79 1435 1840V1829.51C1405.04 1930.96 1311.17 2005 1200 2005ZM1525 2199.96C1539.31 2173.21 1567.53 2155 1600 2155C1685.6 2155 1755 2085.6 1755 2000V1976.7C1731.88 2039.9 1671.21 2085 1600 2085C1558.58 2085 1525 2118.58 1525 2160V2199.96Z" fill="black"/>
<path d="M1275 2240C1275 2198.58 1241.42 2165 1200 2165C1158.58 2165 1125 2198.58 1125 2240C1125 2242.76 1122.76 2245 1120 2245C1117.24 2245 1115 2242.76 1115 2240C1115 2193.06 1153.06 2155 1200 2155C1246.94 2155 1285 2193.06 1285 2240C1285 2281.42 1318.58 2315 1360 2315C1401.42 2315 1435 2281.42 1435 2240C1435 2237.24 1437.24 2235 1440 2235C1442.76 2235 1445 2237.24 1445 2240C1445 2286.94 1406.94 2325 1360 2325C1313.06 2325 1275 2286.94 1275 2240Z" fill="black"/>
<path d="M800 2240C800 2151.63 728.366 2080 640 2080C551.634 2080 480 2008.37 480 1920V2000C480 2088.37 551.634 2160 640 2160C684.183 2160 720 2195.82 720 2240H800Z" fill="white"/>
<path fill-rule="evenodd" clip-rule="evenodd" d="M480 1935C482.761 1935 485 1937.24 485 1940C485 2025.6 554.396 2095 640 2095C720.081 2095 785 2159.92 785 2240C785 2248.28 791.716 2255 800 2255C808.284 2255 815 2248.28 815 2240C815 2237.24 817.239 2235 820 2235C822.761 2235 825 2237.24 825 2240C825 2253.81 813.807 2265 800 2265C786.193 2265 775 2253.81 775 2240C775 2165.44 714.558 2105 640 2105C582.034 2105 531.049 2075.11 501.619 2029.9C527.172 2080.39 579.544 2115 640 2115C709.036 2115 765 2170.96 765 2240C765 2259.33 780.67 2275 800 2275C819.33 2275 835 2259.33 835 2240C835 2237.24 837.239 2235 840 2235C842.761 2235 845 2237.24 845 2240C845 2264.85 824.853 2285 800 2285C775.147 2285 755 2264.85 755 2240C755 2176.49 703.513 2125 640 2125C582.034 2125 531.049 2095.11 501.619 2049.9C527.172 2100.39 579.544 2135 640 2135C697.99 2135 745 2182.01 745 2240C745 2270.38 769.624 2295 800 2295C830.376 2295 855 2270.38 855 2240C855 2237.24 857.239 2235 860 2235C862.761 2235 865 2237.24 865 2240C865 2275.9 835.899 2305 800 2305C764.101 2305 735 2275.9 735 2240C735 2187.53 692.467 2145 640 2145C548.873 2145 475 2071.13 475 1980C475 1978.95 475.326 1977.97 475.882 1977.16C475.299 1971.52 475 1965.8 475 1960C475 1958.95 475.326 1957.97 475.882 1957.16C475.299 1951.52 475 1945.8 475 1940C475 1937.24 477.239 1935 480 1935Z" fill="#C3D7EC"/>
<path d="M165 2000C165 1997.24 162.761 1995 160 1995C157.239 1995 155 1997.24 155 2000C155 2135.31 264.69 2245 400 2245C441.421 2245 475 2278.58 475 2320C475 2366.94 513.056 2405 560 2405C606.944 2405 645 2366.94 645 2320C645 2317.24 642.761 2315 640 2315C637.239 2315 635 2317.24 635 2320C635 2361.42 601.421 2395 560 2395C518.579 2395 485 2361.42 485 2320C485 2273.06 446.944 2235 400 2235C270.213 2235 165 2129.79 165 2000Z" fill="black"/>
<path d="M245 2000C245 1997.24 242.761 1995 240 1995C237.239 1995 235 1997.24 235 2000C235 2091.13 308.873 2165 400 2165C485.604 2165 555 2234.4 555 2320C555 2322.76 557.239 2325 560 2325C562.761 2325 565 2322.76 565 2320C565 2228.87 491.127 2155 400 2155C358.579 2155 325 2121.42 325 2080V2000H315V2080C315 2106.12 326.781 2129.49 345.319 2145.08C343.417 2144.36 341.533 2143.61 339.667 2142.82C284.035 2119.29 245 2064.2 245 2000Z" fill="black"/>
<path fill-rule="evenodd" clip-rule="evenodd" d="M180 1995C182.761 1995 185 1997.24 185 2000C185 2118.74 281.259 2215 400 2215C457.99 2215 505 2262.01 505 2320C505 2350.38 529.624 2375 560 2375C590.376 2375 615 2350.38 615 2320C615 2317.24 617.239 2315 620 2315C622.761 2315 625 2317.24 625 2320C625 2355.9 595.899 2385 560 2385C524.101 2385 495 2355.9 495 2320C495 2267.53 452.467 2225 400 2225C275.736 2225 175 2124.26 175 2000C175 1997.24 177.239 1995 180 1995ZM200 1995C202.761 1995 205 1997.24 205 2000C205 2107.7 292.304 2195 400 2195C469.036 2195 525 2250.96 525 2320C525 2339.33 540.67 2355 560 2355C579.33 2355 595 2339.33 595 2320C595 2317.24 597.239 2315 600 2315C602.761 2315 605 2317.24 605 2320C605 2344.85 584.853 2365 560 2365C535.147 2365 515 2344.85 515 2320C515 2256.49 463.513 2205 400 2205C286.782 2205 195 2113.22 195 2000C195 1997.24 197.239 1995 200 1995ZM220 1995C222.761 1995 225 1997.24 225 2000C225 2096.65 303.35 2175 400 2175C480.081 2175 545 2239.92 545 2320C545 2328.28 551.716 2335 560 2335C568.284 2335 575 2328.28 575 2320C575 2317.24 577.239 2315 580 2315C582.761 2315 585 2317.24 585 2320C585 2333.81 573.807 2345 560 2345C546.193 2345 535 2333.81 535 2320C535 2245.44 474.558 2185 400 2185C297.827 2185 215 2102.17 215 2000C215 1997.24 217.239 1995 220 1995Z" fill="#C3D7EC"/>
<path d="M720 2240C720 2195.82 684.183 2160 640 2160C595.817 2160 560 2195.82 560 2240L640 2240C640 2217.91 657.909 2200 680 2200C702.091 2200 720 2217.91 720 2240Z" fill="white"/>
<path fill-rule="evenodd" clip-rule="evenodd" d="M650 2175C614.101 2175 585 2204.1 585 2240C585 2242.76 582.761 2245 580 2245C577.239 2245 575 2242.76 575 2240C575 2198.58 608.579 2165 650 2165C691.421 2165 725 2198.58 725 2240H715C715 2215.15 694.853 2195 670 2195C645.147 2195 625 2215.15 625 2240C625 2242.76 622.761 2245 620 2245C617.239 2245 615 2242.76 615 2240C615 2211.31 636.967 2187.75 665 2185.22C663.353 2185.08 661.685 2185 660 2185C629.624 2185 605 2209.62 605 2240C605 2242.76 602.761 2245 600 2245C597.239 2245 595 2242.76 595 2240C595 2205.78 621.438 2177.74 655 2175.19C653.35 2175.06 651.682 2175 650 2175Z" fill="#C3D7EC"/>
<path d="M640 2075C554.396 2075 485 2005.6 485 1920H475V2000C475 2079.79 531.641 2146.36 606.911 2161.68C576.405 2174.59 555 2204.79 555 2240C555 2242.76 557.239 2245 560 2245C562.761 2245 565 2242.76 565 2240C565 2198.58 598.579 2165 640 2165C667.798 2165 692.063 2180.12 705.018 2202.59C697.864 2197.8 689.259 2195 680 2195C655.147 2195 635 2215.15 635 2240C635 2242.76 637.239 2245 640 2245C642.761 2245 645 2242.76 645 2240C645 2220.67 660.67 2205 680 2205C699.33 2205 715 2220.67 715 2240C715 2286.94 753.056 2325 800 2325C846.944 2325 885 2286.94 885 2240C885 2237.24 882.761 2235 880 2235C877.239 2235 875 2237.24 875 2240C875 2281.42 841.421 2315 800 2315C758.579 2315 725 2281.42 725 2240C725 2193.06 686.944 2155 640 2155C554.396 2155 485 2085.6 485 2000V1976.7C508.124 2039.9 568.795 2085 640 2085C725.604 2085 795 2154.4 795 2240C795 2242.76 797.239 2245 800 2245C802.761 2245 805 2242.76 805 2240C805 2148.87 731.127 2075 640 2075Z" fill="black"/>
</svg>
